<svg id="svg" version="1.1" xmlns="http://www.w3.org/2000/svg" xmlns:xlink="http://www.w3.org/1999/xlink" width="400" height="287.8787878787879" viewBox="0, 0, 400,287.8787878787879"><g id="svgg"><path id="path0" d="M68.035 18.359 C 87.952 18.399,120.544 18.399,140.461 18.359 C 160.378 18.318,144.082 18.284,104.248 18.284 C 64.413 18.284,48.117 18.318,68.035 18.359 M234.701 18.334 C 232.293 19.162,231.527 19.873,231.554 21.259 L 231.574 22.318 231.975 21.022 C 232.333 19.871,232.542 19.654,233.850 19.078 L 235.322 18.431 306.243 18.431 C 348.464 18.431,377.502 18.537,377.999 18.695 C 378.458 18.840,379.196 19.038,379.638 19.135 C 380.082 19.233,380.566 19.598,380.718 19.951 C 380.959 20.513,380.984 20.520,380.921 20.014 C 380.878 19.669,380.389 19.208,379.698 18.862 C 378.589 18.308,236.285 17.789,234.701 18.334 M30.847 19.115 L 30.207 19.796 30.224 90.748 C 30.235 135.088,30.137 162.327,29.964 163.374 C 29.703 164.944,29.741 165.160,30.564 166.830 L 31.442 168.611 66.059 168.611 C 97.092 168.611,100.570 168.566,99.654 168.179 C 98.554 167.713,35.150 167.844,32.760 168.316 C 31.855 168.495,31.655 168.443,31.506 167.994 C 31.408 167.699,31.145 167.045,30.921 166.539 C 30.574 165.755,30.514 154.935,30.516 92.965 L 30.518 20.310 31.123 19.492 C 31.885 18.461,31.699 18.208,30.847 19.115 M177.749 19.006 C 177.946 19.323,178.207 19.582,178.327 19.582 C 178.447 19.582,178.578 53.308,178.617 94.528 L 178.689 169.474 178.762 94.655 C 178.831 23.758,178.808 19.800,178.330 19.142 C 177.722 18.305,177.241 18.193,177.749 19.006 M381.092 23.470 C 381.093 24.737,381.144 25.220,381.205 24.542 C 381.266 23.865,381.265 22.828,381.203 22.239 C 381.141 21.649,381.091 22.203,381.092 23.470 M231.603 93.880 C 231.601 132.606,231.707 163.772,231.838 163.139 C 232.144 161.658,232.143 26.488,231.836 24.766 C 231.709 24.053,231.604 55.155,231.603 93.880 M381.096 164.867 C 381.095 166.292,381.144 166.912,381.204 166.243 C 381.264 165.575,381.265 164.409,381.206 163.652 C 381.146 162.894,381.097 163.441,381.096 164.867 M231.533 165.936 C 231.533 166.144,231.884 166.572,232.313 166.886 C 232.742 167.201,233.333 167.694,233.628 167.982 C 234.139 168.480,235.740 168.507,268.198 168.558 C 300.419 168.608,302.309 168.639,303.672 169.139 C 306.232 170.078,306.675 171.480,305.028 173.429 C 304.226 174.377,303.346 176.444,303.625 176.723 C 303.708 176.806,303.929 176.361,304.117 175.734 C 304.305 175.107,304.823 174.204,305.269 173.727 C 307.387 171.462,306.496 169.706,302.664 168.589 L 300.216 167.876 269.215 167.888 C 248.610 167.896,237.658 168.002,236.558 168.206 C 234.993 168.495,234.869 168.475,234.298 167.838 C 233.307 166.734,231.533 165.513,231.533 165.936 M101.703 168.954 C 102.456 169.146,103.960 170.719,103.960 171.316 C 103.960 172.492,102.952 174.874,102.049 175.831 C 101.125 176.811,100.335 178.813,100.600 179.503 C 100.672 179.689,100.830 179.266,100.951 178.562 C 101.101 177.693,101.471 176.984,102.106 176.348 C 104.776 173.679,104.745 169.280,102.055 168.938 C 101.598 168.880,101.439 168.887,101.703 168.954 M380.532 169.512 C 380.421 169.967,379.979 170.857,379.549 171.490 C 379.120 172.124,378.672 172.966,378.553 173.362 C 378.278 174.281,377.476 176.054,377.251 176.242 C 376.636 176.754,375.832 178.307,375.680 179.275 L 375.500 180.418 375.919 179.310 C 376.149 178.701,376.581 177.924,376.878 177.582 C 377.176 177.241,377.567 176.638,377.747 176.242 C 379.317 172.783,379.905 171.634,380.107 171.634 C 380.403 171.634,381.134 169.087,380.903 168.856 C 380.810 168.763,380.643 169.058,380.532 169.512 M178.291 171.107 C 178.273 171.371,178.183 171.825,178.092 172.115 C 177.935 172.615,177.943 172.615,178.255 172.129 C 178.436 171.847,178.526 171.393,178.455 171.121 C 178.337 170.675,178.321 170.674,178.291 171.107 M177.565 173.268 C 177.472 173.558,177.016 174.198,176.552 174.691 C 175.770 175.524,174.867 177.843,175.196 178.172 C 175.276 178.252,175.428 177.850,175.535 177.281 C 175.642 176.710,176.166 175.768,176.703 175.182 C 177.665 174.132,178.159 173.167,177.878 172.887 C 177.799 172.808,177.658 172.979,177.565 173.268 M302.990 177.999 C 302.802 178.570,302.327 179.338,301.935 179.705 C 301.544 180.073,301.224 180.578,301.224 180.828 C 301.224 181.136,301.461 181.007,301.961 180.425 C 302.881 179.356,303.623 177.823,303.458 177.333 C 303.390 177.129,303.179 177.429,302.990 177.999 M174.658 179.122 C 174.550 179.462,174.526 179.806,174.605 179.885 C 174.685 179.964,174.838 179.750,174.946 179.410 C 175.054 179.069,175.078 178.725,174.999 178.646 C 174.919 178.567,174.766 178.781,174.658 179.122 M100.058 180.606 C 99.942 180.971,99.498 181.597,99.072 181.996 C 98.087 182.917,97.616 183.798,97.654 184.646 C 97.677 185.156,97.762 185.065,98.014 184.260 C 98.196 183.681,98.753 182.817,99.253 182.340 C 100.133 181.500,100.708 180.382,100.413 180.086 C 100.333 180.007,100.174 180.241,100.058 180.606 M173.264 181.136 C 172.511 182.030,172.050 183.089,172.303 183.342 C 172.383 183.423,172.675 183.012,172.951 182.431 C 173.226 181.850,173.691 181.225,173.983 181.043 C 174.545 180.692,174.691 180.274,174.252 180.274 C 174.107 180.274,173.663 180.662,173.264 181.136 M374.978 181.197 C 374.829 181.590,374.529 182.094,374.313 182.317 C 373.471 183.182,372.643 184.563,372.662 185.070 C 372.677 185.491,372.751 185.452,373.021 184.881 C 373.332 184.223,373.743 183.639,374.514 182.761 C 375.049 182.153,375.620 180.852,375.434 180.666 C 375.333 180.565,375.128 180.804,374.978 181.197 M300.687 182.033 C 299.718 184.544,299.360 185.232,298.831 185.602 C 298.503 185.832,298.325 186.110,298.435 186.220 C 298.686 186.471,300.072 185.194,300.072 184.711 C 300.072 184.514,300.334 183.741,300.655 182.992 C 300.976 182.244,301.174 181.568,301.095 181.489 C 301.016 181.410,300.833 181.655,300.687 182.033 M171.794 184.756 C 171.685 185.335,171.268 186.137,170.867 186.538 C 169.948 187.458,169.035 189.066,169.066 189.714 C 169.079 189.990,169.283 189.764,169.527 189.204 C 169.768 188.651,170.387 187.731,170.903 187.159 C 171.728 186.246,172.479 184.190,172.119 183.830 C 172.049 183.760,171.902 184.177,171.794 184.756 M97.205 186.177 C 97.081 186.652,96.628 187.495,96.197 188.049 C 95.143 189.406,94.681 190.314,94.834 190.729 C 94.904 190.918,95.057 190.713,95.174 190.273 C 95.291 189.833,95.615 189.352,95.893 189.202 C 96.521 188.867,97.696 186.432,97.542 185.787 C 97.468 185.479,97.350 185.616,97.205 186.177 M372.388 185.990 C 372.328 186.686,371.378 188.465,370.704 189.145 C 369.981 189.873,369.173 191.595,369.209 192.332 C 369.222 192.590,369.366 192.412,369.530 191.937 C 369.694 191.461,370.184 190.617,370.619 190.059 C 371.742 188.622,372.698 186.650,372.549 186.083 C 372.474 185.800,372.407 185.761,372.388 185.990 M297.624 188.337 C 297.516 188.678,297.492 189.021,297.572 189.100 C 297.651 189.179,297.804 188.966,297.912 188.625 C 298.020 188.284,298.044 187.941,297.965 187.862 C 297.886 187.782,297.732 187.996,297.624 188.337 M296.928 190.137 C 296.790 190.493,296.340 191.099,295.927 191.483 C 295.514 191.867,295.182 192.320,295.188 192.491 C 295.205 192.941,297.480 190.353,297.480 189.884 C 297.480 189.286,297.208 189.410,296.928 190.137 M167.403 192.731 C 166.719 193.743,166.153 195.083,166.179 195.627 C 166.188 195.815,166.491 195.320,166.852 194.528 C 167.214 193.737,167.724 192.911,167.988 192.693 C 168.251 192.476,168.467 192.184,168.467 192.045 C 168.467 191.533,168.017 191.822,167.403 192.731 M94.090 192.255 C 93.975 192.370,93.880 192.675,93.880 192.931 C 93.880 193.188,93.497 193.847,93.028 194.395 C 92.560 194.944,92.171 195.491,92.164 195.611 C 92.154 195.810,91.391 197.609,90.659 199.164 C 90.502 199.497,90.069 200.124,89.695 200.559 C 89.322 200.993,88.745 202.226,88.413 203.299 C 88.060 204.439,87.504 205.535,87.074 205.936 C 86.195 206.757,85.520 207.981,85.552 208.697 C 85.564 208.982,85.770 208.665,86.008 207.991 C 86.246 207.318,86.535 206.767,86.651 206.767 C 87.253 206.767,88.090 205.460,88.676 203.601 C 89.042 202.444,89.675 201.156,90.096 200.713 C 90.514 200.273,91.235 198.916,91.697 197.697 C 92.160 196.478,92.701 195.418,92.900 195.342 C 93.321 195.181,94.530 192.734,94.393 192.323 C 94.342 192.170,94.206 192.139,94.090 192.255 M294.484 194.398 C 294.204 195.262,293.535 196.537,292.998 197.232 C 292.430 197.966,291.750 199.396,291.375 200.644 C 290.944 202.079,290.447 203.068,289.878 203.624 C 288.856 204.623,288.986 204.996,290.041 204.090 C 290.530 203.670,291.054 202.615,291.574 201.006 C 292.008 199.661,292.585 198.363,292.856 198.123 C 293.915 197.182,295.371 193.961,295.103 193.155 C 295.042 192.975,294.764 193.534,294.484 194.398 M368.639 193.861 C 368.465 194.387,367.950 195.252,367.495 195.784 C 366.693 196.722,365.824 198.893,366.129 199.198 C 366.211 199.281,366.369 198.976,366.479 198.522 C 366.666 197.751,367.607 196.150,368.067 195.823 C 368.385 195.597,369.277 193.227,369.107 193.057 C 369.024 192.974,368.813 193.336,368.639 193.861 M165.641 196.688 C 165.475 197.084,165.006 197.785,164.598 198.247 C 164.190 198.708,163.719 199.615,163.552 200.262 C 163.385 200.910,163.183 201.667,163.102 201.944 C 162.752 203.153,163.264 202.304,163.711 200.936 C 163.982 200.104,164.656 198.809,165.208 198.057 C 165.760 197.305,166.151 196.527,166.077 196.329 C 165.998 196.116,165.819 196.264,165.641 196.688 M365.551 200.031 C 365.445 200.331,365.020 201.028,364.608 201.581 C 363.617 202.910,363.136 203.848,363.150 204.425 C 363.157 204.684,363.417 204.377,363.728 203.744 C 364.040 203.110,364.521 202.397,364.797 202.160 C 365.318 201.712,366.108 199.850,365.877 199.618 C 365.804 199.545,365.657 199.731,365.551 200.031 M162.528 203.199 C 162.422 203.498,161.986 204.132,161.559 204.608 C 160.677 205.588,159.992 207.131,160.191 207.689 C 160.265 207.895,160.475 207.520,160.659 206.855 C 160.843 206.190,161.281 205.413,161.634 205.127 C 162.388 204.516,163.172 203.105,162.906 202.839 C 162.804 202.737,162.634 202.899,162.528 203.199 M288.760 205.423 C 288.416 206.299,288.498 207.036,288.869 206.398 C 289.033 206.116,289.123 205.663,289.068 205.391 C 288.977 204.939,288.950 204.941,288.760 205.423 M362.691 206.032 C 362.583 206.609,362.559 207.147,362.638 207.226 C 362.717 207.305,362.871 206.897,362.979 206.319 C 363.087 205.742,363.111 205.204,363.032 205.125 C 362.953 205.046,362.799 205.454,362.691 206.032 M288.013 208.328 C 287.833 209.041,287.392 209.920,287.032 210.283 C 286.285 211.036,285.693 212.218,284.838 214.663 C 284.511 215.600,284.006 216.637,283.717 216.967 C 283.117 217.652,282.420 219.161,282.614 219.355 C 282.686 219.427,282.964 219.021,283.234 218.454 C 283.503 217.887,283.818 217.423,283.934 217.423 C 284.188 217.423,284.881 215.829,285.536 213.742 C 285.931 212.484,286.908 210.899,287.706 210.223 C 287.970 209.999,288.650 207.345,288.486 207.180 C 288.405 207.099,288.192 207.616,288.013 208.328 M361.953 208.157 C 361.200 209.036,359.395 212.724,359.395 213.383 C 359.395 213.540,359.061 214.028,358.653 214.468 C 358.244 214.907,357.676 215.913,357.390 216.704 C 357.103 217.495,356.770 218.402,356.650 218.719 C 356.505 219.100,356.527 219.197,356.716 219.006 C 356.873 218.848,357.284 218.003,357.630 217.127 C 357.975 216.252,358.575 215.167,358.962 214.716 C 359.350 214.265,359.746 213.621,359.842 213.284 C 359.939 212.947,360.266 212.122,360.570 211.450 C 360.874 210.779,361.123 210.119,361.123 209.983 C 361.123 209.848,361.447 209.360,361.843 208.900 C 362.469 208.172,362.742 207.631,362.483 207.631 C 362.439 207.631,362.201 207.868,361.953 208.157 M159.683 208.783 C 159.575 209.124,159.551 209.467,159.631 209.547 C 159.710 209.626,159.863 209.412,159.971 209.071 C 160.079 208.731,160.103 208.387,160.024 208.308 C 159.945 208.229,159.791 208.443,159.683 208.783 M85.038 210.413 C 84.860 210.913,84.249 211.815,83.681 212.417 C 83.114 213.019,82.654 213.776,82.661 214.099 C 82.670 214.562,82.754 214.503,83.058 213.823 C 83.271 213.348,83.715 212.798,84.046 212.602 C 84.779 212.167,85.601 210.651,85.464 209.988 C 85.396 209.660,85.258 209.797,85.038 210.413 M158.596 210.826 C 157.704 211.789,156.822 213.749,157.025 214.317 C 157.098 214.520,157.306 214.150,157.487 213.495 C 157.668 212.839,158.218 211.909,158.709 211.429 C 159.201 210.949,159.556 210.423,159.499 210.260 C 159.442 210.097,159.035 210.352,158.596 210.826 M82.233 215.643 C 82.115 216.169,82.089 216.671,82.176 216.757 C 82.393 216.974,82.736 215.519,82.577 215.059 C 82.506 214.854,82.351 215.117,82.233 215.643 M156.484 215.589 C 156.372 216.043,155.783 216.984,155.174 217.679 C 154.165 218.832,153.657 220.014,154.356 219.582 C 154.514 219.485,154.644 219.229,154.644 219.015 C 154.644 218.801,155.015 218.314,155.468 217.932 C 156.257 217.268,157.179 215.254,156.846 214.922 C 156.759 214.834,156.596 215.135,156.484 215.589 M81.485 217.758 C 81.294 218.128,80.862 218.741,80.526 219.120 L 79.914 219.809 80.658 219.334 C 81.449 218.829,82.284 217.537,82.001 217.254 C 81.908 217.161,81.676 217.388,81.485 217.758 M355.720 220.117 C 355.079 220.751,353.919 223.477,353.928 224.330 C 353.936 225.095,354.449 224.049,354.650 222.857 C 354.748 222.276,355.208 221.375,355.672 220.855 C 356.852 219.534,356.889 218.961,355.720 220.117 M282.064 220.381 C 281.964 220.778,281.505 221.466,281.042 221.909 C 280.031 222.877,279.937 223.369,280.881 222.750 C 281.590 222.286,282.724 220.137,282.420 219.833 C 282.324 219.737,282.164 219.984,282.064 220.381 M79.363 221.515 C 78.767 223.407,78.318 224.353,77.749 224.910 C 77.213 225.435,76.524 226.944,76.727 227.147 C 76.808 227.228,76.997 226.984,77.147 226.606 C 77.298 226.227,77.725 225.594,78.097 225.198 C 78.773 224.478,80.293 220.442,79.999 220.148 C 79.913 220.062,79.627 220.677,79.363 221.515 M153.636 220.590 C 153.528 220.931,153.504 221.275,153.583 221.354 C 153.662 221.433,153.816 221.219,153.924 220.878 C 154.032 220.538,154.055 220.194,153.976 220.115 C 153.897 220.036,153.744 220.250,153.636 220.590 M153.199 221.958 C 153.197 222.077,152.814 222.606,152.349 223.134 C 151.884 223.661,151.299 224.795,151.050 225.652 C 150.801 226.510,150.205 227.658,149.726 228.203 C 148.961 229.074,147.295 233.208,147.589 233.502 C 147.739 233.652,148.596 231.564,148.596 231.051 C 148.596 230.824,149.093 229.900,149.700 228.998 C 150.308 228.096,151.044 226.683,151.337 225.859 C 151.629 225.034,152.233 223.933,152.679 223.411 C 153.125 222.889,153.491 222.300,153.491 222.102 C 153.492 221.724,153.207 221.584,153.199 221.958 M279.760 224.190 C 279.344 225.786,278.496 227.506,277.762 228.240 C 277.361 228.640,277.044 229.189,277.057 229.459 C 277.075 229.859,277.111 229.869,277.248 229.518 C 277.341 229.280,277.765 228.760,278.190 228.363 C 278.985 227.619,280.346 224.307,280.115 223.678 C 280.043 223.485,279.883 223.715,279.760 224.190 M351.898 227.574 C 351.233 228.651,350.895 229.753,351.151 230.009 C 351.248 230.106,351.411 229.768,351.513 229.258 C 351.615 228.748,352.080 227.950,352.545 227.484 C 353.157 226.873,353.265 226.638,352.934 226.638 C 352.682 226.638,352.215 227.059,351.898 227.574 M75.899 228.514 C 75.652 229.105,75.445 229.669,75.438 229.769 C 75.432 229.868,75.043 230.398,74.574 230.947 C 74.106 231.495,73.722 232.121,73.722 232.337 C 73.722 232.812,74.891 231.439,75.511 230.238 C 76.448 228.418,76.693 227.785,76.523 227.615 C 76.427 227.519,76.146 227.923,75.899 228.514 M276.602 230.670 C 276.494 231.010,276.470 231.354,276.549 231.433 C 276.628 231.512,276.782 231.298,276.890 230.958 C 276.998 230.617,277.022 230.273,276.942 230.194 C 276.863 230.115,276.710 230.329,276.602 230.670 M350.514 231.613 C 350.326 232.361,350.027 232.973,349.849 232.973 C 348.947 232.973,347.048 237.137,347.667 237.756 C 347.762 237.851,347.930 237.429,348.040 236.818 C 348.302 235.373,348.769 234.479,349.855 233.345 C 350.743 232.416,351.205 231.296,350.979 230.617 C 350.912 230.417,350.703 230.865,350.514 231.613 M275.996 232.579 C 275.885 233.034,275.451 233.739,275.030 234.146 C 274.236 234.916,273.384 236.619,273.657 236.892 C 273.743 236.978,273.907 236.747,274.022 236.379 C 274.137 236.010,274.664 235.226,275.193 234.636 C 276.123 233.600,276.701 232.257,276.362 231.918 C 276.272 231.828,276.107 232.125,275.996 232.579 M73.144 234.132 C 72.933 234.771,72.405 235.665,71.972 236.119 C 71.041 237.093,70.440 238.138,70.675 238.374 C 70.767 238.466,70.842 238.394,70.842 238.215 C 70.842 238.035,71.276 237.455,71.806 236.925 C 72.706 236.024,73.976 233.420,73.666 233.109 C 73.590 233.033,73.355 233.493,73.144 234.132 M146.832 234.226 C 146.151 234.724,145.141 236.482,145.153 237.149 C 145.160 237.546,145.299 237.411,145.600 236.717 C 145.840 236.163,146.376 235.354,146.791 234.920 C 147.591 234.084,147.617 233.652,146.832 234.226 M272.846 238.875 C 272.567 239.763,272.118 240.645,271.848 240.835 C 271.291 241.228,270.005 243.607,270.229 243.832 C 270.310 243.912,270.562 243.544,270.788 243.012 C 271.015 242.480,271.537 241.734,271.949 241.354 C 272.369 240.967,272.899 239.973,273.155 239.091 C 273.763 237.001,273.495 236.814,272.846 238.875 M144.591 238.953 C 144.405 239.628,143.896 240.600,143.461 241.112 C 142.640 242.080,141.964 243.402,141.984 244.002 C 141.990 244.193,142.251 243.837,142.562 243.213 C 142.874 242.588,143.377 241.811,143.680 241.485 C 144.361 240.752,145.241 238.595,145.063 238.095 C 144.990 237.891,144.778 238.277,144.591 238.953 M346.614 239.092 C 345.818 239.950,344.420 242.700,344.420 243.406 C 344.420 243.966,344.849 243.283,345.263 242.064 C 345.662 240.890,345.693 240.840,346.873 239.510 C 348.100 238.126,347.864 237.744,346.614 239.092 M70.113 239.927 C 69.835 241.193,69.427 241.880,68.401 242.813 C 67.929 243.242,67.612 243.662,67.697 243.747 C 67.782 243.832,68.312 243.453,68.876 242.906 C 69.827 241.982,70.870 239.528,70.478 239.136 C 70.392 239.050,70.228 239.406,70.113 239.927 M343.573 244.760 C 342.832 245.658,341.529 248.638,341.560 249.365 C 341.579 249.810,341.650 249.677,342.619 247.372 C 342.852 246.818,343.372 245.876,343.774 245.279 C 344.658 243.969,344.520 243.614,343.573 244.760 M67.306 244.876 C 67.192 245.166,67.107 245.684,67.117 246.028 C 67.134 246.620,67.149 246.616,67.416 245.950 C 67.570 245.564,67.655 245.046,67.605 244.798 C 67.530 244.428,67.477 244.442,67.306 244.876 M141.400 245.630 C 141.223 246.288,140.745 247.111,140.339 247.459 C 139.564 248.122,138.503 250.246,138.536 251.068 C 138.549 251.383,138.660 251.301,138.859 250.828 C 139.026 250.432,139.301 249.784,139.470 249.388 C 139.639 248.992,140.115 248.344,140.526 247.948 C 141.276 247.227,142.217 244.928,141.894 244.606 C 141.800 244.512,141.578 244.973,141.400 245.630 M269.834 245.012 C 269.834 245.298,269.448 246.140,268.977 246.884 C 268.062 248.327,268.257 248.779,269.214 247.434 C 269.774 246.649,270.357 244.492,270.010 244.492 C 269.914 244.492,269.834 244.726,269.834 245.012 M66.650 247.482 C 66.555 247.858,66.034 248.597,65.492 249.122 C 64.950 249.647,64.517 250.343,64.530 250.668 C 64.551 251.201,64.588 251.188,64.894 250.540 C 65.081 250.144,65.653 249.385,66.166 248.854 C 66.679 248.322,67.099 247.642,67.099 247.342 C 67.099 246.584,66.856 246.660,66.650 247.482 M267.741 248.698 C 267.625 248.814,267.531 249.107,267.531 249.350 C 267.531 249.674,267.616 249.706,267.851 249.471 C 268.027 249.295,268.122 249.001,268.061 248.819 C 268.000 248.637,267.856 248.583,267.741 248.698 M267.089 250.722 C 266.773 252.160,266.291 253.227,265.167 254.976 C 264.567 255.912,264.075 256.889,264.075 257.149 C 264.075 257.409,263.494 258.588,262.784 259.768 C 262.074 260.949,261.494 262.045,261.497 262.203 C 261.499 262.361,261.650 262.232,261.833 261.915 C 262.016 261.598,262.347 261.157,262.568 260.935 C 263.061 260.440,264.651 257.017,264.651 256.451 C 264.651 256.226,264.988 255.678,265.400 255.234 C 266.547 253.999,267.913 250.538,267.440 250.066 C 267.347 249.972,267.189 250.268,267.089 250.722 M340.467 251.370 C 339.969 252.130,339.276 253.648,338.926 254.742 C 338.548 255.922,337.908 257.158,337.353 257.779 C 336.792 258.406,336.226 259.505,335.942 260.515 C 335.308 262.772,334.896 263.787,334.614 263.787 C 334.182 263.787,333.186 265.458,333.040 266.426 C 332.961 266.955,332.971 267.192,333.064 266.955 C 333.507 265.815,333.960 265.031,334.488 264.491 C 335.104 263.862,335.776 262.404,336.370 260.411 C 336.569 259.742,336.950 258.961,337.216 258.675 C 338.055 257.775,338.610 256.777,339.099 255.292 C 339.753 253.303,340.463 251.692,340.686 251.692 C 340.900 251.692,341.611 250.226,341.467 250.082 C 341.415 250.030,340.965 250.610,340.467 251.370 M64.095 252.144 C 63.990 252.566,63.968 252.977,64.047 253.056 C 64.126 253.135,64.277 252.854,64.383 252.432 C 64.489 252.010,64.511 251.600,64.432 251.521 C 64.353 251.442,64.201 251.722,64.095 252.144 M137.941 252.556 C 137.744 253.031,137.470 253.420,137.332 253.420 C 137.096 253.420,136.706 254.195,135.508 257.049 C 135.235 257.699,134.727 258.541,134.378 258.921 C 133.633 259.731,132.938 261.304,133.104 261.802 C 133.168 261.994,133.451 261.547,133.732 260.809 C 134.014 260.071,134.349 259.467,134.475 259.467 C 134.705 259.467,135.759 257.435,136.615 255.343 C 136.863 254.737,137.322 254.024,137.635 253.759 C 137.948 253.493,138.289 252.919,138.392 252.484 C 138.640 251.434,138.389 251.475,137.941 252.556 M63.527 253.902 C 63.434 254.191,62.969 254.881,62.493 255.436 C 62.018 255.990,61.628 256.547,61.628 256.673 C 61.627 256.800,61.368 257.440,61.051 258.095 C 60.734 258.751,60.475 259.399,60.475 259.535 C 60.475 259.671,60.022 260.492,59.467 261.359 C 58.913 262.225,58.459 263.044,58.459 263.178 C 58.459 263.777,57.119 266.591,56.524 267.240 C 55.459 268.402,56.355 269.599,58.229 269.518 C 58.675 269.499,58.477 269.359,57.626 269.092 C 55.947 268.565,55.955 268.587,56.986 267.336 C 57.480 266.737,57.883 266.100,57.883 265.920 C 57.883 265.352,59.121 262.528,59.766 261.627 C 60.105 261.152,60.555 260.310,60.765 259.755 C 60.976 259.201,61.238 258.618,61.348 258.459 C 61.458 258.301,61.629 257.830,61.728 257.413 C 61.828 256.996,62.293 256.244,62.761 255.742 C 63.609 254.835,64.114 253.795,63.839 253.520 C 63.760 253.441,63.619 253.613,63.527 253.902 M132.679 262.521 C 132.564 262.636,132.469 262.930,132.469 263.173 C 132.469 263.497,132.555 263.529,132.790 263.294 C 132.966 263.118,133.060 262.824,133.000 262.642 C 132.939 262.460,132.795 262.406,132.679 262.521 M261.089 263.211 C 260.817 264.108,260.247 265.324,260.008 265.515 C 258.051 267.079,258.374 269.573,260.527 269.518 L 261.627 269.490 260.333 269.145 C 258.802 268.737,258.603 268.213,259.545 267.065 C 260.446 265.966,261.540 263.561,261.410 262.965 C 261.335 262.623,261.246 262.691,261.089 263.211 M131.126 265.020 C 130.625 265.688,130.134 266.753,130.035 267.387 L 129.856 268.539 130.276 267.428 C 130.506 266.817,131.094 265.820,131.582 265.213 C 132.070 264.605,132.469 264.036,132.469 263.948 C 132.469 263.508,131.947 263.925,131.126 265.020 M332.479 268.365 C 332.361 268.737,331.870 269.003,330.947 269.195 L 329.590 269.478 330.670 269.512 C 331.722 269.546,332.901 268.803,332.901 268.107 C 332.901 267.634,332.665 267.779,332.479 268.365 M60.123 269.758 C 60.800 269.819,61.837 269.818,62.427 269.756 C 63.016 269.694,62.462 269.644,61.195 269.645 C 59.928 269.646,59.445 269.697,60.123 269.758 M262.995 269.758 C 263.747 269.817,264.978 269.817,265.731 269.758 C 266.483 269.699,265.868 269.650,264.363 269.650 C 262.858 269.650,262.243 269.699,262.995 269.758 M327.214 269.753 C 327.649 269.819,328.362 269.819,328.798 269.753 C 329.233 269.687,328.877 269.633,328.006 269.633 C 327.135 269.633,326.778 269.687,327.214 269.753 " stroke="none" fill="#76c4ae" fill-rule="evenodd"></path><path id="path1" d="M30.604 18.359 C 30.138 18.794,29.605 19.435,29.419 19.784 C 28.717 21.098,28.950 166.028,29.656 167.019 C 29.976 167.468,30.238 167.962,30.238 168.116 C 30.238 169.076,30.675 169.088,64.782 169.054 C 101.473 169.018,101.384 169.015,102.672 170.544 C 103.551 171.590,102.937 173.866,101.288 175.669 C 100.928 176.063,100.461 176.969,100.252 177.682 C 100.043 178.395,99.755 179.203,99.612 179.478 C 99.469 179.753,99.352 180.115,99.352 180.283 C 99.352 180.450,99.034 180.905,98.646 181.294 C 97.875 182.064,97.332 183.169,96.738 185.169 C 96.527 185.882,95.927 187.095,95.405 187.865 C 94.883 188.635,94.456 189.382,94.456 189.524 C 94.456 189.981,93.227 192.474,92.389 193.716 C 91.942 194.378,91.577 195.037,91.577 195.181 C 91.577 195.615,89.616 199.500,89.298 199.697 C 88.905 199.940,88.229 201.440,87.849 202.913 C 87.681 203.565,87.149 204.594,86.667 205.201 C 85.749 206.356,85.283 207.298,84.679 209.215 C 84.480 209.849,83.926 210.865,83.449 211.473 C 82.624 212.523,81.497 215.097,81.497 215.930 C 81.497 216.143,81.045 216.998,80.492 217.831 C 79.940 218.664,79.103 220.279,78.632 221.419 C 78.162 222.559,77.539 223.843,77.247 224.273 C 76.956 224.703,76.277 225.961,75.738 227.070 C 75.199 228.179,74.534 229.417,74.260 229.822 C 73.986 230.227,73.547 231.134,73.284 231.838 C 72.667 233.490,71.717 235.286,71.119 235.930 C 70.523 236.572,70.143 237.381,69.670 239.021 C 69.334 240.182,68.451 241.805,67.945 242.189 C 67.546 242.491,66.873 244.124,66.521 245.644 C 66.286 246.655,65.822 247.599,65.238 248.252 C 64.734 248.815,64.099 249.981,63.827 250.844 C 63.240 252.705,62.778 253.701,62.239 254.268 C 61.814 254.715,59.899 258.718,59.899 259.160 C 59.899 259.306,59.708 259.617,59.475 259.850 C 59.241 260.084,58.395 261.676,57.593 263.388 C 56.792 265.100,56.040 266.571,55.924 266.656 C 55.338 267.084,55.014 268.419,55.361 268.974 C 56.273 270.435,55.605 270.410,93.602 270.410 L 128.930 270.410 129.658 269.735 C 130.059 269.363,130.647 268.473,130.964 267.756 C 131.281 267.039,131.676 266.369,131.842 266.266 C 132.104 266.104,132.824 264.702,134.003 262.059 C 134.179 261.663,134.665 260.821,135.082 260.187 C 135.499 259.554,136.128 258.258,136.479 257.307 C 136.831 256.357,137.345 255.320,137.621 255.004 C 138.414 254.094,138.947 253.090,139.381 251.692 C 139.822 250.269,140.353 249.281,141.178 248.344 C 141.475 248.007,142.036 246.791,142.425 245.641 C 142.814 244.491,143.524 243.018,144.003 242.367 C 144.481 241.716,145.132 240.340,145.449 239.310 C 145.766 238.280,146.452 236.789,146.973 235.997 C 147.495 235.205,148.171 233.978,148.475 233.270 C 148.779 232.562,149.309 231.460,149.652 230.822 C 150.427 229.381,151.708 226.780,152.213 225.623 C 152.422 225.144,152.896 224.399,153.266 223.969 C 153.636 223.538,154.172 222.401,154.457 221.442 C 154.741 220.483,155.336 219.283,155.777 218.776 C 156.768 217.639,157.388 216.438,157.667 215.119 C 157.934 213.858,158.420 212.904,159.332 211.847 C 159.724 211.394,160.203 210.487,160.397 209.832 C 161.162 207.251,161.577 206.304,162.272 205.556 C 162.669 205.127,162.995 204.705,162.995 204.617 C 162.995 204.214,165.008 199.901,165.957 198.272 C 166.326 197.639,166.806 196.667,167.023 196.112 C 167.241 195.558,167.755 194.586,168.167 193.952 C 169.029 192.626,169.383 191.891,170.059 190.014 C 170.326 189.273,170.857 188.373,171.239 188.015 C 171.621 187.656,172.195 186.514,172.516 185.477 C 173.097 183.596,173.605 182.623,174.520 181.641 C 174.786 181.355,175.349 180.074,175.770 178.795 C 176.234 177.388,176.911 176.032,177.485 175.361 C 179.557 172.941,179.417 178.671,179.419 96.040 C 179.420 55.335,179.418 21.428,179.415 20.693 C 179.411 19.619,179.245 19.179,178.574 18.461 L 177.739 17.567 104.595 17.567 L 31.450 17.567 30.604 18.359 M233.044 18.095 C 232.370 18.369,231.624 18.872,231.386 19.212 C 230.599 20.336,230.741 166.052,231.531 167.390 C 232.588 169.181,230.628 169.090,267.505 169.054 L 301.336 169.021 302.936 169.655 C 305.430 170.643,305.941 171.501,304.702 172.622 C 304.398 172.897,303.727 174.181,303.212 175.474 C 302.697 176.768,301.909 178.367,301.462 179.030 C 301.014 179.692,300.648 180.304,300.648 180.390 C 300.648 180.667,298.869 184.444,298.668 184.593 C 298.220 184.927,297.523 186.298,296.913 188.049 C 296.555 189.078,295.968 190.245,295.610 190.641 C 294.815 191.519,294.467 192.180,293.864 193.958 C 293.608 194.711,292.906 196.055,292.304 196.944 C 291.702 197.833,291.115 199.014,290.999 199.568 C 290.756 200.727,290.179 201.931,289.276 203.168 C 288.629 204.053,288.324 204.791,287.669 207.055 C 287.462 207.768,287.057 208.697,286.768 209.121 C 285.916 210.366,284.629 212.923,284.406 213.810 C 284.293 214.261,283.819 215.185,283.353 215.863 C 282.887 216.540,282.505 217.272,282.505 217.489 C 282.505 217.706,282.397 218.006,282.264 218.157 C 282.131 218.307,281.846 218.884,281.631 219.438 C 281.417 219.993,280.862 220.924,280.399 221.509 C 279.936 222.093,279.267 223.433,278.913 224.487 C 278.558 225.541,278.087 226.618,277.867 226.881 C 276.985 227.931,276.457 228.968,275.851 230.843 C 275.502 231.923,274.907 233.136,274.528 233.538 C 273.754 234.360,273.253 235.390,272.701 237.293 C 272.495 238.006,271.856 239.302,271.282 240.173 C 270.708 241.044,270.008 242.405,269.726 243.197 C 269.145 244.829,268.618 246.008,268.374 246.220 C 268.001 246.544,266.952 248.783,266.361 250.516 C 266.015 251.532,265.389 252.958,264.972 253.684 C 264.181 255.058,263.909 255.625,263.058 257.667 C 262.777 258.341,262.460 258.891,262.353 258.891 C 262.245 258.891,261.861 259.572,261.499 260.403 C 261.138 261.235,260.727 262.140,260.586 262.415 C 260.446 262.690,260.331 263.056,260.331 263.227 C 260.331 263.399,259.961 264.081,259.508 264.743 C 257.573 267.572,257.599 269.404,259.582 270.055 C 261.174 270.578,330.243 270.431,331.775 269.902 C 332.662 269.595,332.937 269.264,333.714 267.555 C 334.212 266.461,334.784 265.392,334.985 265.180 C 335.469 264.668,336.264 262.930,336.968 260.845 C 337.167 260.257,337.607 259.453,337.946 259.058 C 338.285 258.664,338.796 257.784,339.082 257.104 C 339.369 256.424,339.780 255.459,339.996 254.960 C 340.212 254.461,340.389 253.966,340.389 253.860 C 340.389 253.753,340.565 253.491,340.780 253.276 C 340.995 253.061,341.527 252.001,341.963 250.921 C 342.744 248.984,343.193 248.051,344.708 245.212 C 345.131 244.420,345.558 243.449,345.657 243.053 C 345.756 242.657,346.352 241.543,346.980 240.578 C 347.608 239.612,348.336 238.086,348.598 237.186 C 348.859 236.286,349.508 234.981,350.039 234.285 C 350.570 233.589,351.297 232.135,351.655 231.053 C 352.013 229.971,352.800 228.426,353.403 227.619 C 354.006 226.813,354.500 226.007,354.500 225.829 C 354.500 225.119,355.479 222.684,356.202 221.598 C 356.623 220.965,357.281 219.734,357.664 218.862 C 358.046 217.991,358.690 216.760,359.093 216.127 C 359.872 214.905,360.162 214.313,361.004 212.239 C 361.293 211.526,361.831 210.490,362.199 209.935 C 362.568 209.381,363.143 208.020,363.477 206.911 C 364.161 204.640,364.702 203.464,365.416 202.698 C 365.685 202.410,366.204 201.296,366.569 200.223 C 366.935 199.150,367.642 197.689,368.142 196.976 C 368.642 196.263,369.352 194.773,369.720 193.665 C 370.088 192.556,370.736 191.195,371.160 190.641 C 371.888 189.687,372.455 188.627,372.930 187.329 C 373.383 186.094,373.954 184.976,374.721 183.821 C 375.162 183.159,375.522 182.531,375.522 182.425 C 375.522 182.246,375.984 181.134,376.775 179.410 C 376.956 179.014,377.194 178.622,377.303 178.540 C 377.411 178.458,378.104 177.162,378.841 175.660 C 379.578 174.159,380.526 172.282,380.947 171.490 L 381.713 170.050 381.857 96.328 C 382.008 19.086,382.017 19.752,380.850 18.493 L 380.124 17.711 307.197 17.653 C 238.585 17.599,234.197 17.625,233.044 18.095 M178.219 19.006 L 178.820 19.726 178.755 95.608 L 178.690 171.490 178.088 172.930 C 177.757 173.722,177.077 174.805,176.576 175.336 C 176.076 175.868,175.666 176.462,175.666 176.657 C 175.666 177.497,174.426 180.687,173.936 181.108 C 173.135 181.796,172.305 183.466,172.069 184.863 C 171.935 185.656,171.519 186.478,170.908 187.154 C 170.384 187.734,169.601 189.112,169.168 190.217 C 168.734 191.321,168.149 192.484,167.867 192.801 C 167.342 193.389,166.163 195.921,166.163 196.458 C 166.163 196.621,165.726 197.356,165.192 198.090 C 164.659 198.824,163.937 200.266,163.590 201.296 C 162.736 203.823,162.384 204.520,161.664 205.104 C 161.303 205.396,160.721 206.638,160.246 208.127 C 159.735 209.733,159.151 210.949,158.647 211.460 C 158.138 211.977,157.576 213.158,157.077 214.759 C 156.572 216.381,156.067 217.435,155.633 217.776 C 154.854 218.389,154.314 219.396,153.763 221.262 C 153.545 222.000,153.029 223.000,152.617 223.482 C 152.205 223.965,151.629 225.034,151.337 225.859 C 151.044 226.683,150.308 228.096,149.700 228.998 C 149.093 229.900,148.596 230.841,148.596 231.089 C 148.596 231.813,147.408 234.189,146.541 235.200 C 146.102 235.713,145.592 236.684,145.408 237.360 C 144.810 239.556,144.274 240.785,143.446 241.857 C 142.633 242.908,142.375 243.496,141.658 245.932 C 141.448 246.645,140.973 247.498,140.601 247.827 C 139.752 248.579,139.346 249.370,138.689 251.548 C 138.403 252.498,137.921 253.493,137.617 253.759 C 137.314 254.024,136.863 254.737,136.615 255.343 C 135.772 257.404,134.706 259.467,134.485 259.467 C 134.363 259.467,133.977 260.212,133.627 261.123 C 132.677 263.589,132.414 264.101,131.397 265.454 C 130.887 266.134,130.335 267.188,130.171 267.797 C 130.008 268.405,129.703 269.045,129.494 269.218 C 128.793 269.800,57.902 269.720,56.774 269.136 C 55.696 268.579,55.646 268.199,56.524 267.240 C 57.119 266.591,58.459 263.777,58.459 263.178 C 58.459 263.044,58.913 262.225,59.467 261.359 C 60.022 260.492,60.475 259.671,60.475 259.535 C 60.475 259.399,60.734 258.751,61.051 258.095 C 61.368 257.440,61.627 256.800,61.627 256.673 C 61.628 256.547,61.964 256.055,62.374 255.580 C 63.381 254.416,63.785 253.570,64.232 251.692 C 64.475 250.673,64.939 249.748,65.533 249.100 C 66.421 248.132,66.630 247.651,67.413 244.780 C 67.607 244.068,68.102 243.161,68.513 242.765 C 69.423 241.887,69.818 241.097,70.414 238.969 C 70.692 237.976,71.244 236.927,71.821 236.297 C 72.343 235.727,73.009 234.519,73.300 233.613 C 73.592 232.707,74.195 231.487,74.640 230.902 C 75.086 230.318,75.450 229.770,75.450 229.686 C 75.450 229.601,75.839 228.683,76.314 227.646 C 76.789 226.608,77.178 225.681,77.178 225.585 C 77.178 225.488,77.405 225.200,77.684 224.944 C 78.311 224.366,78.744 223.482,79.369 221.498 C 79.636 220.651,80.132 219.614,80.472 219.194 C 81.597 217.804,81.975 217.009,82.372 215.200 C 82.663 213.870,83.032 213.116,83.805 212.270 C 84.769 211.216,85.247 210.152,85.666 208.128 C 85.757 207.689,86.284 206.828,86.838 206.215 C 87.461 205.525,88.069 204.386,88.435 203.220 C 88.759 202.185,89.329 200.985,89.700 200.554 C 90.071 200.122,90.502 199.497,90.659 199.164 C 91.391 197.609,92.154 195.810,92.164 195.611 C 92.171 195.491,92.560 194.944,93.028 194.395 C 93.497 193.847,93.880 193.174,93.880 192.900 C 93.880 192.627,93.994 192.332,94.133 192.247 C 94.272 192.161,94.526 191.533,94.698 190.852 C 94.869 190.170,95.446 189.034,95.980 188.327 C 96.873 187.145,97.332 186.014,97.758 183.951 C 97.847 183.518,98.357 182.728,98.890 182.195 C 99.846 181.239,100.220 180.429,100.800 178.054 C 100.964 177.382,101.520 176.392,102.049 175.831 C 102.952 174.874,103.960 172.492,103.960 171.316 C 103.960 171.019,103.562 170.396,103.077 169.932 C 101.516 168.440,101.292 168.432,64.893 168.525 L 31.442 168.611 30.564 166.830 C 29.741 165.160,29.703 164.944,29.964 163.374 C 30.137 162.327,30.235 135.079,30.223 90.713 L 30.205 19.726 31.093 18.932 L 31.981 18.137 104.799 18.212 L 177.617 18.287 178.219 19.006 M378.384 18.454 C 379.182 18.625,380.100 18.981,380.424 19.246 L 381.013 19.726 381.014 94.531 C 381.015 169.354,380.988 171.634,380.099 171.634 C 379.973 171.634,379.467 172.509,378.972 173.578 C 378.478 174.647,377.924 175.846,377.741 176.242 C 377.558 176.638,377.117 177.324,376.761 177.767 C 376.404 178.210,375.975 179.117,375.805 179.783 C 375.475 181.086,374.976 182.235,374.514 182.761 C 373.542 183.868,373.241 184.359,372.927 185.353 C 372.333 187.233,371.506 188.926,370.645 190.024 C 370.192 190.601,369.531 192.014,369.175 193.164 C 368.819 194.313,368.234 195.597,367.875 196.015 C 367.515 196.433,367.094 197.048,366.939 197.380 C 366.369 198.599,365.443 201.094,365.443 201.409 C 365.443 201.587,365.203 201.883,364.910 202.066 C 364.226 202.493,363.330 204.458,362.893 206.485 C 362.705 207.359,362.230 208.449,361.837 208.906 C 361.444 209.363,361.123 209.848,361.123 209.983 C 361.123 210.119,360.879 210.779,360.581 211.450 C 360.283 212.122,359.879 213.092,359.682 213.607 C 359.486 214.122,359.218 214.543,359.087 214.543 C 358.875 214.543,358.297 215.671,356.690 219.222 C 356.421 219.816,355.906 220.619,355.546 221.008 C 354.958 221.643,354.468 223.004,354.018 225.255 C 353.933 225.682,353.390 226.544,352.813 227.169 C 351.864 228.197,351.422 229.229,350.912 231.612 C 350.818 232.052,350.299 232.880,349.759 233.453 C 348.722 234.553,348.443 235.130,347.856 237.402 C 347.656 238.174,347.192 239.146,346.825 239.561 C 345.698 240.836,345.659 240.898,345.254 242.064 C 345.038 242.687,344.574 243.715,344.223 244.348 C 343.210 246.176,342.233 248.246,341.540 250.036 C 341.187 250.947,340.808 251.692,340.699 251.692 C 340.465 251.692,339.766 253.264,339.099 255.292 C 338.610 256.777,338.055 257.775,337.216 258.675 C 336.950 258.961,336.569 259.742,336.370 260.411 C 335.776 262.404,335.104 263.862,334.488 264.491 C 333.762 265.233,333.300 266.181,332.904 267.742 C 332.732 268.418,332.345 269.094,332.035 269.260 C 331.023 269.801,259.586 269.706,259.042 269.163 C 258.354 268.474,258.903 266.397,260.008 265.515 C 260.236 265.332,260.722 264.284,261.324 262.672 C 261.583 261.979,262.308 260.562,262.935 259.522 C 263.562 258.482,264.075 257.417,264.075 257.154 C 264.075 256.892,264.567 255.912,265.167 254.976 C 266.281 253.242,266.594 252.541,267.272 250.252 C 267.483 249.539,268.131 248.214,268.712 247.307 C 269.292 246.400,269.858 245.175,269.969 244.585 C 270.215 243.275,271.154 241.381,271.861 240.769 C 272.148 240.520,272.789 239.111,273.286 237.638 C 273.859 235.942,274.480 234.675,274.979 234.183 C 275.476 233.694,276.060 232.507,276.554 230.984 C 276.985 229.652,277.574 228.356,277.861 228.104 C 278.527 227.519,278.826 226.930,279.622 224.622 C 279.977 223.593,280.622 222.361,281.054 221.886 C 281.487 221.411,282.141 220.245,282.507 219.294 C 282.873 218.344,283.413 217.297,283.708 216.967 C 284.002 216.637,284.511 215.600,284.838 214.663 C 285.687 212.236,286.284 211.037,287.010 210.306 C 287.357 209.955,287.849 208.918,288.101 208.002 C 289.001 204.735,289.204 204.247,289.959 203.534 C 290.445 203.075,290.959 202.028,291.372 200.654 C 291.743 199.418,292.434 197.956,292.989 197.232 C 293.522 196.537,294.247 195.126,294.600 194.096 C 294.953 193.067,295.590 191.836,296.016 191.361 C 296.920 190.350,297.279 189.631,297.953 187.473 C 298.225 186.602,298.667 185.732,298.935 185.539 C 299.202 185.347,299.717 184.439,300.079 183.523 C 300.442 182.607,300.847 181.734,300.981 181.584 C 301.115 181.433,301.224 181.117,301.224 180.880 C 301.224 180.643,301.555 180.104,301.959 179.682 C 302.363 179.260,303.049 177.878,303.483 176.611 C 303.918 175.343,304.624 173.890,305.052 173.380 C 306.669 171.458,306.219 170.073,303.672 169.139 C 302.309 168.639,300.421 168.608,268.263 168.558 L 234.293 168.505 233.468 167.838 C 233.013 167.471,232.391 166.960,232.085 166.703 C 231.541 166.246,231.156 21.476,231.695 20.072 C 231.837 19.701,233.540 18.715,234.701 18.331 C 235.643 18.019,376.921 18.140,378.384 18.454 " stroke="none" fill="#88ccbc" fill-rule="evenodd"></path><path id="path2" d="M31.677 92.729 L 31.677 165.875 66.221 165.875 C 92.298 165.875,100.962 165.959,101.570 166.218 C 102.590 166.652,103.672 167.597,103.672 168.053 C 103.672 168.246,104.251 168.675,104.959 169.008 C 107.459 170.183,107.593 173.006,105.186 173.771 C 104.716 173.920,104.519 174.287,104.368 175.291 C 104.170 176.613,103.886 177.111,102.505 178.566 C 102.017 179.080,101.663 179.920,101.449 181.071 C 101.096 182.966,99.886 185.169,99.197 185.169 C 98.620 185.169,98.203 186.333,98.186 187.996 C 98.167 189.861,97.420 191.294,96.292 191.626 C 95.438 191.878,95.383 191.983,95.230 193.642 C 94.973 196.436,94.556 197.518,93.652 197.734 C 92.440 198.023,92.153 198.393,92.148 199.675 C 92.140 201.917,90.892 204.147,89.633 204.169 C 89.421 204.173,89.271 204.561,89.269 205.112 C 89.266 205.626,89.077 206.371,88.849 206.767 C 88.621 207.163,88.308 207.762,88.155 208.098 C 88.001 208.433,87.537 208.974,87.124 209.300 C 86.541 209.758,86.331 210.237,86.195 211.425 C 86.000 213.121,84.768 215.244,83.801 215.551 C 83.334 215.699,83.225 215.989,83.221 217.082 C 83.215 219.089,82.155 221.742,81.360 221.742 C 80.658 221.742,80.058 222.961,80.058 224.385 C 80.058 226.519,78.986 228.342,77.722 228.359 C 77.376 228.364,77.217 228.751,77.097 229.878 C 76.847 232.213,76.283 233.534,75.306 234.077 C 74.186 234.700,74.112 234.818,73.905 236.325 C 73.723 237.655,73.588 237.889,72.066 239.517 C 71.383 240.248,71.130 240.788,71.130 241.516 C 71.130 242.422,70.739 243.548,70.295 243.916 C 70.199 243.996,69.944 244.406,69.726 244.828 C 69.509 245.250,69.104 245.655,68.827 245.728 C 68.456 245.825,68.232 246.377,67.982 247.814 C 67.507 250.544,66.560 252.268,65.535 252.268 C 65.186 252.268,65.083 252.587,65.083 253.665 C 65.083 256.149,64.206 258.209,63.039 258.466 C 62.149 258.661,62.049 258.874,61.758 261.195 C 61.502 263.242,60.986 264.216,59.906 264.694 C 59.148 265.029,59.029 265.239,58.987 266.305 C 58.961 266.979,58.928 267.732,58.915 267.978 C 58.883 268.578,128.688 268.626,129.069 268.027 C 129.192 267.833,129.295 266.988,129.297 266.148 C 129.303 264.175,129.927 262.956,131.046 262.733 C 131.978 262.546,132.035 262.409,132.339 259.611 C 132.578 257.418,132.840 256.945,133.982 256.649 C 134.866 256.420,134.920 256.322,135.252 254.338 C 135.729 251.490,135.836 251.224,136.957 250.103 C 137.498 249.562,137.941 249.038,137.941 248.938 C 137.941 247.220,139.542 244.492,140.550 244.492 C 140.930 244.492,141.078 244.108,141.237 242.705 C 141.516 240.232,142.017 239.162,143.064 238.797 C 143.976 238.479,143.959 238.528,144.446 234.913 C 144.634 233.519,145.624 232.397,146.666 232.397 C 147.259 232.397,147.444 231.771,147.444 229.763 C 147.444 227.291,148.012 226.363,149.532 226.354 C 150.277 226.350,150.324 226.273,150.324 225.068 C 150.324 222.841,151.084 220.556,152.146 219.588 C 152.860 218.938,153.230 218.231,153.612 216.789 C 154.122 214.865,154.860 213.967,155.929 213.967 C 156.256 213.967,156.371 213.655,156.371 212.776 C 156.371 210.323,157.120 208.731,158.428 208.403 C 159.286 208.188,159.530 207.556,159.535 205.529 C 159.541 203.588,160.159 202.520,161.412 202.285 L 162.419 202.096 162.419 200.391 C 162.419 198.126,162.992 196.817,164.247 196.219 C 165.292 195.721,165.587 195.022,165.587 193.043 C 165.587 191.668,166.207 190.375,167.424 189.216 C 167.998 188.671,168.467 188.032,168.467 187.797 C 168.467 187.311,168.978 185.629,169.417 184.669 C 169.579 184.314,170.069 183.866,170.505 183.673 C 171.099 183.410,171.333 183.067,171.439 182.302 C 171.887 179.084,172.560 177.970,174.057 177.970 C 174.320 177.970,174.480 177.369,174.577 176.010 C 174.758 173.476,175.258 172.432,176.458 172.079 C 177.334 171.821,177.394 171.720,177.402 170.495 C 177.408 169.569,177.401 32.567,177.394 20.662 L 177.394 19.582 104.536 19.582 L 31.677 19.582 31.677 92.729 M234.342 92.369 C 234.301 133.468,234.379 165.311,234.521 165.515 C 234.719 165.799,241.891 165.875,268.737 165.875 C 293.230 165.875,302.870 165.965,303.304 166.197 C 303.635 166.374,304.384 167.007,304.968 167.603 C 305.553 168.200,306.310 168.776,306.651 168.884 C 308.161 169.364,307.276 175.408,305.547 176.430 C 304.563 177.011,304.505 177.152,304.242 179.606 C 304.022 181.661,303.762 182.106,302.376 182.796 C 301.412 183.275,301.361 183.379,301.205 185.169 C 300.992 187.609,300.460 188.697,299.316 189.034 C 298.471 189.283,298.406 189.401,298.267 190.932 C 298.086 192.931,297.468 194.189,296.339 194.856 C 295.650 195.263,295.449 195.617,295.309 196.673 C 294.974 199.193,294.231 200.534,292.995 200.844 C 292.413 200.990,292.296 201.198,292.292 202.093 C 292.284 204.218,291.145 206.767,290.204 206.767 C 289.525 206.767,289.129 207.883,289.129 209.796 C 289.129 212.119,288.272 213.391,286.705 213.391 C 286.437 213.391,286.285 214.009,286.190 215.484 C 286.021 218.119,285.528 219.188,284.338 219.493 C 283.492 219.711,283.424 219.829,283.239 221.382 C 282.911 224.152,281.591 226.608,280.418 226.633 C 280.299 226.636,280.200 226.994,280.197 227.430 C 280.188 229.150,279.262 230.957,278.137 231.451 C 277.466 231.745,277.345 232.003,277.193 233.461 C 276.954 235.749,276.258 237.060,275.128 237.348 C 274.241 237.575,274.228 237.604,274.092 239.722 C 273.933 242.199,273.377 243.280,272.132 243.529 C 271.219 243.712,271.195 243.777,270.828 247.203 C 270.650 248.861,270.220 249.964,269.752 249.964 C 268.945 249.964,268.187 251.382,268.044 253.160 C 267.872 255.314,267.276 256.653,265.936 257.898 C 265.213 258.571,264.943 259.112,264.786 260.202 C 264.585 261.602,263.630 263.252,262.576 264.019 C 262.259 264.250,262.059 264.763,262.059 265.344 C 262.059 265.866,261.914 266.707,261.738 267.214 C 261.561 267.721,261.487 268.206,261.572 268.292 C 261.658 268.378,277.164 268.432,296.031 268.412 L 330.333 268.377 331.184 267.564 C 331.862 266.916,332.084 266.388,332.279 264.957 C 332.495 263.377,332.665 263.030,333.689 262.065 C 334.715 261.099,334.898 260.723,335.219 258.926 C 335.540 257.129,335.738 256.723,336.865 255.547 C 338.027 254.334,338.161 254.046,338.305 252.447 C 338.507 250.207,339.030 248.957,340.030 248.320 C 341.133 247.619,341.180 247.515,341.402 245.299 C 341.604 243.293,342.648 241.613,343.692 241.613 C 344.151 241.613,344.420 240.979,344.420 239.898 C 344.420 238.880,345.669 236.620,346.551 236.042 C 347.056 235.712,347.258 235.258,347.363 234.216 C 347.515 232.695,348.534 230.883,349.491 230.430 C 350.119 230.133,350.468 229.033,350.468 227.346 C 350.468 226.824,350.565 226.355,350.684 226.302 C 350.803 226.249,351.114 225.817,351.376 225.342 C 351.639 224.867,352.189 224.309,352.600 224.102 C 353.241 223.780,353.348 223.539,353.348 222.408 C 353.348 219.892,354.203 217.931,355.474 217.535 C 356.304 217.276,356.506 216.896,356.511 215.584 C 356.519 213.490,357.069 212.295,358.281 211.737 C 359.111 211.355,359.382 211.059,359.388 210.528 C 359.410 208.440,360.133 206.318,361.179 205.272 C 362.089 204.361,362.271 203.959,362.438 202.482 C 362.681 200.331,363.376 199.132,364.508 198.905 C 365.327 198.742,365.367 198.660,365.509 196.891 C 365.703 194.477,366.209 193.448,367.370 193.106 C 368.254 192.845,368.295 192.764,368.469 190.946 C 368.753 187.978,369.448 186.897,371.072 186.897 C 371.382 186.897,371.490 186.525,371.490 185.461 C 371.490 182.496,372.357 180.850,373.920 180.850 C 374.315 180.850,374.489 180.176,374.811 177.392 C 375.026 175.540,375.329 175.057,376.602 174.538 C 377.389 174.217,377.538 174.007,377.538 173.214 C 377.538 172.696,377.739 171.301,377.984 170.114 C 378.379 168.203,378.437 159.743,378.488 96.289 C 378.542 29.059,378.576 24.566,379.042 23.715 C 379.460 22.951,379.476 22.756,379.142 22.479 C 378.925 22.299,378.576 21.573,378.367 20.867 L 377.988 19.582 306.202 19.582 L 234.415 19.582 234.342 92.369 " stroke="none" fill="#44ac94" fill-rule="evenodd"></path><path id="path3" d="M57.883 18.645 C 128.268 18.841,177.614 18.842,177.493 18.647 C 177.420 18.528,144.549 18.462,104.447 18.501 C 64.344 18.540,43.391 18.604,57.883 18.645 M251.548 18.644 C 293.082 18.828,378.332 18.843,377.887 18.667 C 377.616 18.559,345.320 18.493,306.120 18.520 C 266.919 18.548,242.361 18.603,251.548 18.644 M178.325 20.446 C 178.325 21.001,178.384 21.228,178.456 20.950 C 178.529 20.673,178.529 20.220,178.456 19.942 C 178.384 19.665,178.325 19.892,178.325 20.446 M232.160 20.425 C 231.682 21.796,231.760 22.225,232.272 21.044 C 232.507 20.502,232.655 19.922,232.599 19.756 C 232.544 19.590,232.346 19.891,232.160 20.425 M30.524 21.094 C 30.453 53.919,30.557 165.714,30.659 165.816 C 30.738 165.895,30.805 133.155,30.807 93.059 C 30.809 52.964,30.746 20.158,30.668 20.158 C 30.590 20.158,30.525 20.580,30.524 21.094 M231.965 94.024 C 231.965 132.294,232.050 163.306,232.153 162.940 C 232.256 162.574,232.340 131.562,232.340 94.024 C 232.340 56.487,232.256 25.475,232.153 25.109 C 232.050 24.743,231.965 55.755,231.965 94.024 M380.847 94.168 C 380.847 132.102,380.881 147.621,380.922 128.654 C 380.962 109.687,380.962 78.650,380.922 59.683 C 380.881 40.716,380.847 56.235,380.847 94.168 M232.676 166.394 C 233.066 166.663,233.744 167.255,234.181 167.710 C 234.817 168.372,235.106 168.489,235.630 168.296 C 235.990 168.163,250.216 167.983,267.243 167.896 L 298.200 167.737 267.819 167.671 C 247.278 167.627,237.084 167.704,236.348 167.908 C 235.305 168.198,235.201 168.161,233.931 167.043 C 233.201 166.400,232.461 165.882,232.285 165.890 C 232.109 165.898,232.285 166.125,232.676 166.394 M380.752 167.507 C 380.726 168.009,380.631 168.657,380.540 168.947 C 380.383 169.445,380.393 169.446,380.702 168.964 C 380.882 168.684,380.977 168.036,380.913 167.524 L 380.798 166.595 380.752 167.507 M98.488 167.694 C 100.677 168.577,100.712 168.585,100.018 168.066 C 99.672 167.807,98.959 167.526,98.434 167.442 L 97.480 167.288 98.488 167.694 M33.261 168.072 C 32.616 168.387,32.580 168.438,33.117 168.273 C 33.513 168.151,48.027 167.981,65.371 167.895 L 96.904 167.738 65.515 167.694 C 38.448 167.655,34.006 167.708,33.261 168.072 M178.347 169.186 C 178.349 170.137,178.402 170.491,178.466 169.973 C 178.531 169.456,178.529 168.678,178.464 168.245 C 178.398 167.813,178.345 168.236,178.347 169.186 M300.030 167.912 C 300.720 168.048,301.556 168.245,301.888 168.351 C 302.447 168.528,302.458 168.507,302.023 168.073 C 301.707 167.756,301.098 167.613,300.165 167.634 L 298.776 167.666 300.030 167.912 M305.599 169.918 C 306.315 170.634,306.443 170.951,306.302 171.660 C 306.194 172.197,306.236 172.460,306.412 172.352 C 307.147 171.897,305.898 169.042,304.964 169.042 C 304.832 169.042,305.118 169.436,305.599 169.918 M379.688 170.842 L 379.231 171.778 379.818 171.058 C 380.383 170.365,380.567 169.906,380.281 169.906 C 380.206 169.906,379.939 170.328,379.688 170.842 M176.674 174.025 C 175.774 175.127,175.620 175.376,175.847 175.362 C 175.985 175.353,176.399 174.965,176.768 174.498 C 177.136 174.032,177.331 173.655,177.200 173.661 C 177.069 173.667,176.832 173.831,176.674 174.025 M103.008 175.238 C 102.745 175.790,102.588 176.242,102.661 176.242 C 102.858 176.242,103.732 174.479,103.601 174.347 C 103.538 174.284,103.271 174.685,103.008 175.238 M376.286 177.010 C 375.993 177.401,375.813 177.781,375.887 177.854 C 375.960 177.928,376.242 177.648,376.514 177.234 C 377.154 176.257,376.978 176.084,376.286 177.010 M302.360 179.931 C 301.305 181.209,301.199 181.491,302.091 180.643 C 302.627 180.133,303.001 179.651,302.922 179.571 C 302.842 179.492,302.590 179.654,302.360 179.931 M173.485 180.636 L 172.642 181.567 173.506 180.848 C 173.981 180.453,174.424 180.097,174.490 180.058 C 174.556 180.018,174.547 179.922,174.469 179.845 C 174.392 179.767,173.949 180.123,173.485 180.636 M100.216 181.069 C 100.216 181.242,100.006 181.594,99.750 181.851 C 99.493 182.107,99.353 182.387,99.439 182.472 C 99.524 182.557,99.816 182.288,100.088 181.873 C 100.360 181.459,100.500 181.037,100.399 180.937 C 100.298 180.836,100.216 180.895,100.216 181.069 M373.118 183.345 C 372.825 183.737,372.646 184.117,372.719 184.190 C 372.792 184.263,373.074 183.984,373.346 183.569 C 373.986 182.592,373.810 182.420,373.118 183.345 M372.231 185.622 C 372.125 186.044,372.094 186.445,372.162 186.512 C 372.230 186.580,372.372 186.291,372.478 185.869 C 372.584 185.447,372.615 185.046,372.547 184.978 C 372.479 184.910,372.337 185.200,372.231 185.622 M299.103 185.913 C 298.270 186.645,298.121 187.137,298.921 186.514 C 299.387 186.150,300.211 185.163,300.035 185.178 C 299.976 185.183,299.557 185.514,299.103 185.913 M296.505 191.394 C 295.922 192.126,295.852 192.311,296.257 192.058 C 296.566 191.865,296.977 191.455,297.170 191.146 C 297.775 190.176,297.351 190.335,296.505 191.394 M167.087 192.743 C 166.579 193.582,166.166 194.457,166.169 194.686 C 166.173 194.916,166.416 194.586,166.710 193.952 C 167.005 193.319,167.520 192.514,167.856 192.165 C 168.501 191.493,168.613 191.217,168.239 191.217 C 168.114 191.217,167.596 191.903,167.087 192.743 M93.017 195.156 C 92.378 195.831,92.366 195.881,92.911 195.591 C 93.248 195.411,93.601 195.066,93.694 194.824 C 93.919 194.236,93.857 194.266,93.017 195.156 M367.552 195.320 C 366.792 196.164,366.343 197.010,367.056 196.253 C 367.846 195.415,368.413 194.672,368.264 194.672 C 368.193 194.672,367.872 194.964,367.552 195.320 M294.185 196.349 C 294.085 196.662,293.652 197.274,293.222 197.710 C 292.540 198.400,292.523 198.458,293.086 198.162 C 293.729 197.824,294.767 196.183,294.504 195.920 C 294.428 195.843,294.284 196.037,294.185 196.349 M90.345 200.435 C 89.795 201.077,89.693 201.426,90.135 201.153 C 90.418 200.978,91.106 199.856,90.931 199.856 C 90.881 199.856,90.618 200.117,90.345 200.435 M163.175 200.587 C 163.076 200.844,163.006 201.271,163.020 201.535 C 163.033 201.800,163.159 201.634,163.298 201.166 C 163.570 200.257,163.474 199.808,163.175 200.587 M161.699 203.974 C 160.760 205.124,160.684 205.366,161.494 204.626 C 162.003 204.161,162.419 203.739,162.419 203.690 C 162.419 203.472,161.962 203.653,161.699 203.974 M361.123 208.783 C 360.772 209.277,360.553 209.749,360.636 209.832 C 360.720 209.916,360.948 209.682,361.143 209.312 C 361.338 208.942,361.636 208.549,361.806 208.439 C 361.976 208.329,362.035 208.159,361.938 208.062 C 361.841 207.966,361.474 208.290,361.123 208.783 M85.694 208.948 C 85.588 209.370,85.557 209.771,85.625 209.839 C 85.692 209.906,85.835 209.617,85.941 209.195 C 86.046 208.773,86.078 208.372,86.010 208.304 C 85.942 208.236,85.800 208.526,85.694 208.948 M158.531 210.511 C 158.076 210.986,157.802 211.375,157.922 211.375 C 158.150 211.375,158.548 210.999,159.215 210.150 C 159.842 209.352,159.437 209.566,158.531 210.511 M286.875 211.103 C 286.218 211.935,286.250 212.300,286.918 211.590 C 287.660 210.800,288.035 210.224,287.796 210.239 C 287.658 210.248,287.244 210.637,286.875 211.103 M358.623 214.040 C 357.619 215.156,357.527 215.597,358.509 214.592 C 359.023 214.064,359.391 213.579,359.325 213.513 C 359.259 213.447,358.944 213.684,358.623 214.040 M155.004 217.351 C 154.489 217.934,154.068 218.538,154.068 218.694 C 154.068 218.871,154.149 218.875,154.284 218.704 C 154.404 218.554,154.947 217.945,155.493 217.351 C 156.038 216.757,156.362 216.275,156.212 216.280 C 156.062 216.286,155.518 216.767,155.004 217.351 M284.089 217.239 C 283.239 218.227,283.079 218.618,283.804 217.935 C 284.261 217.505,284.577 217.096,284.506 217.028 C 284.435 216.960,284.248 217.055,284.089 217.239 M354.899 220.743 C 354.637 221.144,354.474 221.525,354.538 221.589 C 354.602 221.653,354.873 221.325,355.140 220.860 C 355.734 219.824,355.557 219.739,354.899 220.743 M281.976 221.323 C 281.494 222.382,281.586 222.608,282.108 221.645 C 282.351 221.195,282.497 220.774,282.431 220.708 C 282.365 220.642,282.160 220.919,281.976 221.323 M153.204 221.386 C 153.204 221.559,153.042 221.873,152.844 222.083 C 152.076 222.897,151.704 223.470,151.945 223.468 C 152.309 223.465,153.609 221.475,153.389 221.256 C 153.287 221.154,153.204 221.212,153.204 221.386 M280.484 223.045 C 280.283 223.287,280.177 223.542,280.248 223.612 C 280.319 223.683,280.595 223.486,280.862 223.174 C 281.129 222.861,281.235 222.606,281.098 222.606 C 280.961 222.606,280.684 222.804,280.484 223.045 M77.804 225.502 C 77.147 226.334,77.179 226.699,77.846 225.989 C 78.589 225.199,78.963 224.623,78.725 224.638 C 78.587 224.647,78.172 225.035,77.804 225.502 M351.617 227.574 C 351.303 228.089,351.046 228.629,351.045 228.774 C 351.044 229.102,351.084 229.048,351.846 227.718 C 352.603 226.395,352.410 226.273,351.617 227.574 M149.319 228.363 C 148.865 228.836,148.549 229.270,148.617 229.326 C 148.685 229.382,149.109 228.995,149.560 228.465 C 150.579 227.269,150.428 227.205,149.319 228.363 M277.941 228.546 C 277.569 228.943,277.319 229.323,277.386 229.390 C 277.453 229.457,277.879 229.124,278.333 228.651 C 278.786 228.177,279.036 227.798,278.888 227.807 C 278.739 227.817,278.313 228.150,277.941 228.546 M75.207 230.801 C 74.876 231.362,74.657 231.821,74.720 231.821 C 74.946 231.821,76.086 230.058,75.949 229.921 C 75.872 229.844,75.538 230.240,75.207 230.801 M146.800 233.858 C 146.525 234.019,146.147 234.434,145.961 234.782 C 145.692 235.285,145.810 235.238,146.533 234.555 C 147.678 233.475,147.741 233.310,146.800 233.858 M274.856 235.061 L 274.010 235.997 274.946 235.151 C 275.461 234.686,275.882 234.265,275.882 234.215 C 275.882 233.993,275.644 234.189,274.856 235.061 M72.037 236.603 C 71.823 236.845,71.705 237.100,71.775 237.170 C 71.845 237.239,72.137 237.037,72.425 236.719 C 72.712 236.401,72.830 236.146,72.687 236.152 C 72.543 236.158,72.251 236.361,72.037 236.603 M271.994 241.241 C 270.629 242.863,270.504 243.328,271.814 241.912 C 272.468 241.206,273.002 240.525,273.002 240.400 C 273.002 240.065,272.940 240.118,271.994 241.241 M343.485 244.337 C 342.414 245.627,342.473 245.994,343.557 244.780 C 344.032 244.248,344.420 243.707,344.420 243.577 C 344.420 243.233,344.357 243.285,343.485 244.337 M140.013 247.458 C 139.507 247.980,139.093 248.492,139.093 248.596 C 139.093 248.699,139.546 248.317,140.101 247.746 C 141.038 246.780,141.241 246.508,141.021 246.508 C 140.973 246.508,140.520 246.936,140.013 247.458 M268.893 247.714 C 268.454 248.206,268.143 248.657,268.201 248.715 C 268.351 248.864,269.834 247.347,269.834 247.045 C 269.834 246.683,269.771 246.728,268.893 247.714 M341.253 249.607 C 341.253 249.781,341.089 250.094,340.889 250.303 C 340.316 250.903,339.467 252.306,339.598 252.436 C 339.663 252.502,340.141 251.900,340.660 251.099 C 341.179 250.298,341.524 249.564,341.428 249.467 C 341.332 249.371,341.253 249.434,341.253 249.607 M267.119 251.856 C 267.013 252.278,266.982 252.679,267.050 252.747 C 267.118 252.815,267.260 252.525,267.366 252.103 C 267.472 251.681,267.503 251.280,267.435 251.213 C 267.367 251.145,267.225 251.434,267.119 251.856 M134.629 258.248 C 134.121 258.621,133.542 259.468,133.802 259.458 C 133.940 259.453,134.286 259.129,134.571 258.738 C 135.107 258.001,135.121 257.887,134.629 258.248 M262.964 260.372 C 262.761 260.697,262.658 261.026,262.736 261.104 C 262.813 261.181,263.027 260.963,263.211 260.619 C 263.646 259.806,263.444 259.604,262.964 260.372 M59.625 261.847 L 58.960 262.779 59.774 261.996 C 60.222 261.565,60.521 261.145,60.439 261.063 C 60.357 260.981,59.991 261.334,59.625 261.847 M334.456 263.448 C 334.122 263.727,333.682 264.273,333.477 264.663 C 333.228 265.138,333.451 264.997,334.155 264.235 C 335.115 263.196,335.333 262.906,335.133 262.933 C 335.094 262.938,334.789 263.170,334.456 263.448 M56.899 267.432 C 56.100 268.434,56.200 269.005,57.163 268.943 C 57.322 268.933,57.289 268.860,57.091 268.780 C 56.705 268.624,56.587 267.819,56.950 267.819 C 57.204 267.819,57.973 266.661,57.821 266.508 C 57.764 266.452,57.350 266.867,56.899 267.432 M129.303 268.825 C 128.989 269.203,124.583 269.265,93.774 269.330 L 58.603 269.405 93.764 269.476 C 128.604 269.546,128.929 269.541,129.446 268.970 C 129.732 268.654,129.898 268.395,129.814 268.395 C 129.729 268.395,129.499 268.588,129.303 268.825 M278.568 269.474 C 288.044 269.517,303.465 269.517,312.837 269.474 C 322.209 269.432,314.456 269.398,295.608 269.398 C 276.760 269.398,269.092 269.432,278.568 269.474 " stroke="none" fill="#6cc4ac" fill-rule="evenodd"></path><path id="path4" d="M31.308 19.300 C 30.530 20.208,30.530 164.856,31.308 167.046 C 31.872 168.633,31.872 168.633,33.292 168.040 C 35.153 167.263,98.820 167.385,100.349 168.169 C 100.976 168.491,101.704 168.754,101.966 168.754 C 104.847 168.754,104.998 173.971,102.190 176.492 C 101.386 177.213,101.080 177.719,101.080 178.323 C 101.080 179.985,100.189 182.014,99.171 182.674 C 98.489 183.115,98.212 183.508,98.222 184.017 C 98.236 184.713,98.245 184.716,98.488 184.115 C 98.626 183.772,99.010 183.406,99.341 183.301 C 100.255 183.011,100.819 181.927,101.252 179.625 C 101.489 178.363,101.827 177.424,102.107 177.250 C 103.278 176.520,103.686 175.926,104.093 174.365 C 104.334 173.441,104.805 172.393,105.140 172.036 L 105.750 171.387 104.667 170.091 C 104.071 169.378,103.252 168.712,102.848 168.610 C 102.443 168.509,101.814 168.127,101.450 167.763 C 101.085 167.398,100.237 166.946,99.565 166.759 C 98.036 166.331,35.187 166.502,33.064 166.940 C 31.785 167.203,31.707 167.183,31.546 166.544 C 31.316 165.626,31.325 20.085,31.556 19.484 C 31.784 18.890,175.363 18.730,177.063 19.323 L 177.970 19.639 178.016 95.565 C 178.042 137.324,178.155 170.518,178.267 169.330 C 178.559 166.233,178.569 21.994,178.277 20.483 C 178.144 19.791,177.858 19.113,177.642 18.976 C 176.663 18.356,31.842 18.676,31.308 19.300 M233.804 19.215 C 232.376 19.859,231.632 21.829,231.997 23.997 C 232.324 25.937,232.317 162.049,231.990 164.219 C 231.781 165.609,231.810 165.875,232.173 165.875 C 232.410 165.875,233.201 166.400,233.931 167.043 C 235.201 168.161,235.305 168.198,236.348 167.908 C 237.676 167.539,301.800 167.477,301.800 167.844 C 301.800 168.167,302.948 168.674,304.224 168.913 C 306.763 169.389,307.405 172.515,305.271 174.010 C 304.985 174.210,304.457 175.280,304.097 176.388 C 303.150 179.304,302.790 180.055,301.962 180.832 C 301.556 181.214,301.224 181.676,301.224 181.859 C 301.224 182.622,299.784 185.649,299.092 186.341 C 298.681 186.752,298.336 187.273,298.325 187.497 C 298.248 189.146,297.109 191.370,295.793 192.438 C 295.454 192.713,295.176 193.234,295.176 193.594 C 295.176 195.239,293.817 197.972,292.847 198.280 C 292.544 198.376,292.297 198.647,292.297 198.881 C 292.297 200.217,290.793 203.827,289.987 204.422 C 289.383 204.869,289.136 205.289,289.152 205.840 C 289.164 206.271,289.239 206.465,289.317 206.271 C 289.396 206.077,289.896 205.482,290.429 204.949 C 290.963 204.415,291.478 203.602,291.574 203.142 C 292.042 200.905,292.480 199.906,293.460 198.848 C 294.232 198.014,294.665 197.168,295.031 195.780 C 295.371 194.487,295.830 193.549,296.440 192.900 C 297.513 191.759,297.950 190.887,298.195 189.405 C 298.301 188.759,298.704 187.994,299.181 187.533 C 300.188 186.558,300.483 185.981,300.917 184.128 C 301.153 183.123,301.609 182.282,302.352 181.487 C 303.051 180.736,303.564 179.823,303.786 178.929 C 304.440 176.295,304.725 175.649,305.694 174.591 C 307.670 172.434,307.178 168.754,304.914 168.754 C 304.638 168.754,303.958 168.357,303.405 167.870 C 302.635 167.194,301.971 166.924,300.587 166.724 C 297.925 166.339,238.970 166.373,236.873 166.761 C 235.109 167.087,232.720 166.005,232.892 164.959 C 232.926 164.750,233.083 163.996,233.239 163.283 C 233.624 161.535,233.621 26.613,233.237 24.622 C 232.740 22.049,233.194 20.069,234.426 19.432 C 235.332 18.963,376.694 18.941,378.554 19.410 C 380.597 19.924,380.426 13.061,380.425 94.847 C 380.423 164.609,380.397 168.344,379.916 168.754 C 379.146 169.411,378.236 171.613,377.702 174.110 C 377.597 174.601,377.143 175.273,376.692 175.607 C 375.792 176.272,374.815 178.827,375.006 180.014 C 375.086 180.512,375.225 180.252,375.502 179.084 C 375.759 178.001,376.207 177.113,376.854 176.407 C 377.386 175.826,377.898 175.000,377.991 174.572 C 378.210 173.569,378.752 172.107,378.974 171.922 C 379.336 171.622,380.332 169.712,380.522 168.955 C 380.659 168.408,380.822 39.979,380.710 20.670 C 380.707 20.084,380.469 19.756,379.770 19.374 C 378.377 18.613,235.482 18.457,233.804 19.215 M176.849 172.803 C 175.563 174.205,175.385 174.554,174.906 176.606 C 174.524 178.245,174.544 179.353,174.930 177.919 C 175.527 175.702,175.850 175.002,176.705 174.068 C 177.565 173.129,178.179 171.991,177.924 171.808 C 177.870 171.769,177.386 172.217,176.849 172.803 M173.464 179.338 C 172.778 179.952,172.053 181.504,171.811 182.875 C 171.712 183.434,171.106 184.592,170.463 185.448 C 169.155 187.188,168.467 188.644,168.467 189.668 C 168.467 190.045,168.357 190.353,168.223 190.353 C 167.837 190.353,166.739 191.394,166.739 191.758 C 166.739 191.940,166.607 192.313,166.446 192.589 C 166.285 192.864,165.985 193.866,165.780 194.816 C 165.507 196.080,165.243 196.618,164.796 196.820 C 163.941 197.207,162.932 199.111,163.072 200.073 L 163.188 200.864 163.417 199.918 C 163.544 199.397,164.027 198.565,164.492 198.067 C 165.548 196.937,166.163 195.767,166.163 194.887 C 166.163 194.268,167.656 191.558,168.186 191.217 C 168.308 191.138,168.639 190.367,168.921 189.505 C 169.203 188.642,169.841 187.476,170.338 186.913 C 171.319 185.803,171.794 184.762,172.086 183.087 C 172.199 182.434,172.712 181.512,173.393 180.739 C 174.845 179.089,174.897 178.054,173.464 179.338 M373.860 181.598 C 372.793 182.439,372.067 183.674,372.065 184.651 C 372.061 186.065,371.493 187.347,370.649 187.846 C 370.065 188.191,369.614 188.843,369.205 189.937 C 368.581 191.606,368.370 193.475,368.898 192.657 C 369.052 192.419,369.180 191.930,369.182 191.570 C 369.187 190.883,370.534 188.625,370.939 188.625 C 371.267 188.625,371.948 187.037,372.375 185.275 C 372.612 184.298,373.109 183.378,373.840 182.562 C 375.392 180.830,375.402 180.383,373.860 181.598 M97.793 185.745 C 97.448 187.444,96.968 188.449,96.145 189.201 C 95.692 189.615,95.155 190.593,94.880 191.505 C 94.090 194.128,93.810 194.725,92.963 195.591 C 92.517 196.047,92.153 196.612,92.153 196.846 C 92.153 197.080,92.036 197.497,91.894 197.772 C 91.752 198.047,91.402 198.837,91.116 199.527 C 90.831 200.218,90.324 200.961,89.990 201.180 C 89.629 201.416,89.231 202.171,89.009 203.039 C 88.486 205.078,87.936 206.079,86.952 206.780 C 86.439 207.145,86.112 207.631,86.123 208.011 L 86.142 208.639 86.402 207.991 C 86.545 207.635,86.896 207.343,87.182 207.343 C 87.675 207.343,88.167 206.597,88.947 204.666 C 89.126 204.223,89.273 203.689,89.273 203.479 C 89.273 203.268,89.791 202.529,90.425 201.836 C 91.058 201.143,91.577 200.366,91.577 200.108 C 91.577 199.104,92.418 197.358,93.402 196.320 C 94.050 195.636,94.498 194.833,94.607 194.160 C 94.942 192.093,95.451 190.638,95.887 190.497 C 96.896 190.170,98.523 186.251,98.126 185.105 C 98.056 184.903,97.906 185.191,97.793 185.745 M368.323 193.501 C 368.323 193.649,368.082 193.846,367.789 193.939 C 367.163 194.138,366.227 195.949,365.702 197.978 C 365.469 198.878,365.037 199.659,364.539 200.077 C 363.666 200.812,362.475 203.640,362.641 204.583 C 362.729 205.079,362.785 205.033,362.965 204.320 C 363.283 203.062,363.736 202.224,364.569 201.349 C 364.974 200.924,365.481 199.993,365.696 199.280 C 366.402 196.933,366.678 196.355,367.649 195.192 C 368.495 194.180,368.890 193.233,368.467 193.233 C 368.387 193.233,368.323 193.353,368.323 193.501 M162.608 201.690 C 162.489 202.144,162.459 202.584,162.542 202.667 C 162.774 202.899,163.058 201.971,162.934 201.385 C 162.853 201.001,162.768 201.081,162.608 201.690 M161.044 203.601 C 160.410 204.192,159.539 206.635,159.539 207.825 C 159.539 208.203,159.163 208.826,158.671 209.265 C 157.586 210.231,157.088 211.218,156.620 213.324 C 156.380 214.405,156.022 215.159,155.583 215.507 C 154.811 216.120,153.492 218.577,153.492 219.402 C 153.492 219.709,153.059 220.478,152.531 221.110 C 151.475 222.374,151.038 223.335,150.762 224.996 C 150.637 225.750,150.199 226.477,149.353 227.335 C 148.284 228.420,148.077 228.844,147.736 230.647 C 147.392 232.472,147.223 232.812,146.294 233.548 C 145.197 234.417,144.539 235.934,144.594 237.470 C 144.623 238.285,144.629 238.281,144.913 237.293 C 145.369 235.705,146.096 234.381,146.751 233.944 C 147.083 233.723,147.513 232.993,147.707 232.322 C 147.901 231.651,148.195 230.648,148.361 230.094 C 148.527 229.539,149.004 228.697,149.421 228.222 C 150.411 227.095,150.779 226.407,151.043 225.189 C 151.245 224.256,152.000 222.941,152.819 222.097 C 153.013 221.897,153.406 220.940,153.692 219.972 C 154.041 218.788,154.554 217.858,155.256 217.134 C 155.977 216.389,156.416 215.578,156.677 214.508 C 157.154 212.547,157.682 211.439,158.614 210.443 C 159.377 209.628,160.102 207.917,160.112 206.911 C 160.118 206.238,161.111 204.523,161.882 203.854 C 162.178 203.598,162.419 203.306,162.419 203.206 C 162.419 202.823,161.638 203.048,161.044 203.601 M362.275 205.627 C 362.275 205.897,361.218 207.561,360.819 207.919 C 360.633 208.086,360.197 209.263,359.664 211.036 C 359.458 211.720,359.081 212.433,358.827 212.620 C 357.962 213.253,357.193 214.682,356.796 216.392 C 356.528 217.546,356.151 218.319,355.631 218.782 C 354.535 219.758,352.861 224.520,353.418 225.076 C 353.508 225.166,353.670 224.809,353.779 224.283 C 354.204 222.226,354.864 220.699,355.672 219.908 C 356.136 219.454,356.515 218.928,356.515 218.739 C 356.515 218.004,357.993 214.678,358.628 213.982 C 359.285 213.262,360.547 210.501,360.547 209.783 C 360.547 209.584,360.952 208.986,361.448 208.456 C 362.254 207.593,362.985 205.328,362.457 205.328 C 362.357 205.328,362.275 205.462,362.275 205.627 M288.697 207.525 C 288.293 209.459,287.834 210.576,287.136 211.316 C 286.283 212.221,285.850 213.056,285.385 214.687 C 284.924 216.307,284.503 217.167,283.767 217.999 C 283.417 218.395,282.910 219.399,282.640 220.230 C 282.371 221.062,281.737 222.194,281.232 222.746 C 280.678 223.350,280.159 224.352,279.925 225.266 C 279.469 227.051,279.173 227.635,278.133 228.798 C 277.335 229.690,276.469 231.796,276.462 232.861 C 276.460 233.195,275.959 234.037,275.348 234.733 C 274.261 235.971,273.975 236.604,273.235 239.394 C 273.019 240.210,272.441 241.248,271.824 241.929 C 270.804 243.056,270.360 244.100,269.964 246.299 C 269.848 246.942,269.428 247.707,268.937 248.170 C 268.028 249.028,267.897 249.388,268.494 249.388 C 269.372 249.388,270.685 246.776,270.694 245.010 C 270.700 243.919,271.204 242.934,271.923 242.609 C 272.746 242.236,273.385 240.963,273.807 238.850 C 274.081 237.478,274.396 236.844,275.247 235.950 C 276.294 234.850,277.034 233.154,277.034 231.857 C 277.034 231.518,277.419 230.838,277.889 230.345 C 278.359 229.853,278.822 229.206,278.916 228.908 C 279.011 228.610,279.189 228.366,279.311 228.366 C 279.433 228.366,279.711 227.621,279.928 226.710 C 280.157 225.747,280.570 224.856,280.915 224.582 C 281.663 223.986,282.777 221.777,282.989 220.469 C 283.085 219.879,283.488 219.171,283.976 218.737 C 284.885 217.926,285.673 216.293,285.673 215.218 C 285.673 214.085,286.456 212.551,287.210 212.208 C 288.176 211.768,289.646 207.476,289.038 206.869 C 288.945 206.776,288.791 207.071,288.697 207.525 M85.671 210.194 C 85.502 211.127,85.132 211.763,84.262 212.610 C 83.241 213.603,83.179 213.729,83.801 213.541 C 85.222 213.111,86.394 210.968,86.030 209.466 C 85.951 209.138,85.810 209.422,85.671 210.194 M82.833 215.119 C 82.448 217.290,81.973 218.381,80.994 219.339 C 80.473 219.848,80.058 220.549,80.058 220.918 L 80.058 221.582 80.555 220.870 C 80.829 220.479,81.412 219.806,81.851 219.376 C 82.290 218.946,82.649 218.285,82.649 217.907 C 82.649 217.530,82.788 216.822,82.958 216.334 C 83.128 215.846,83.221 215.082,83.165 214.635 C 83.078 213.950,83.026 214.026,82.833 215.119 M79.331 223.308 C 79.054 224.187,78.487 225.263,78.071 225.700 C 77.343 226.463,76.026 229.205,76.026 229.958 C 76.026 230.157,75.633 230.741,75.153 231.255 C 74.668 231.774,74.018 233.000,73.692 234.010 C 73.056 235.979,72.195 237.293,71.541 237.293 C 71.315 237.293,71.130 237.423,71.130 237.581 C 71.130 238.862,73.260 237.111,73.582 235.565 C 73.840 234.323,74.343 233.343,75.215 232.383 C 76.115 231.392,76.602 230.501,76.602 229.845 C 76.602 228.955,77.381 227.384,78.012 227.001 C 78.760 226.547,79.310 225.457,79.763 223.527 C 80.247 221.468,79.956 221.320,79.331 223.308 M352.177 226.193 C 351.138 226.875,350.165 229.382,350.538 230.415 C 350.617 230.634,350.781 230.295,350.902 229.662 C 351.212 228.033,351.821 226.953,352.642 226.579 C 353.030 226.402,353.348 226.084,353.348 225.872 C 353.348 225.399,353.418 225.379,352.177 226.193 M350.180 231.514 C 350.180 231.835,349.911 232.156,349.545 232.272 C 348.247 232.684,347.703 233.667,347.484 235.997 C 347.342 237.506,347.354 237.571,347.583 236.506 C 347.981 234.650,348.659 233.433,349.609 232.872 C 350.345 232.437,350.898 230.958,350.324 230.958 C 350.245 230.958,350.180 231.208,350.180 231.514 M346.346 238.345 C 345.581 238.747,344.767 240.181,344.327 241.901 C 344.226 242.297,343.703 243.081,343.165 243.644 C 342.627 244.207,342.092 245.114,341.975 245.660 C 341.650 247.176,340.955 249.130,340.580 249.580 C 340.396 249.802,340.103 250.144,339.930 250.340 C 339.338 251.011,339.032 251.839,338.509 254.193 C 338.055 256.234,337.892 256.573,337.294 256.724 C 336.455 256.934,335.637 258.663,335.352 260.828 C 335.183 262.108,335.016 262.417,334.236 262.899 C 333.541 263.329,333.197 263.858,332.822 265.078 C 332.094 267.440,332.251 268.294,333.001 266.053 C 333.442 264.734,333.926 263.902,334.566 263.364 C 335.078 262.933,335.495 262.305,335.498 261.961 C 335.501 261.425,335.774 260.449,336.538 258.243 C 336.634 257.966,336.794 257.735,336.895 257.730 C 337.524 257.699,338.180 256.684,338.662 254.999 C 339.241 252.974,340.137 251.038,340.804 250.372 C 341.018 250.157,341.414 249.233,341.684 248.317 C 342.342 246.084,342.676 245.385,343.621 244.266 C 344.061 243.746,344.420 243.129,344.420 242.895 C 344.420 242.660,344.535 242.244,344.675 241.969 C 344.815 241.694,345.106 241.080,345.322 240.605 C 345.539 240.130,346.102 239.393,346.574 238.967 C 347.591 238.050,347.481 237.749,346.346 238.345 M70.725 239.453 C 70.469 240.996,69.451 242.998,68.822 243.198 C 68.244 243.382,67.898 244.190,67.364 246.610 C 67.096 247.828,66.722 248.574,66.021 249.296 C 65.487 249.847,65.091 250.421,65.142 250.573 C 65.293 251.026,67.339 248.971,67.492 248.214 C 67.569 247.830,67.789 246.706,67.981 245.716 C 68.182 244.676,68.478 243.916,68.683 243.916 C 69.782 243.916,71.543 240.031,71.054 238.682 C 70.978 238.473,70.830 238.819,70.725 239.453 M144.276 238.626 C 144.276 238.778,143.784 239.431,143.181 240.077 C 142.123 241.212,141.397 242.880,141.397 244.176 C 141.397 244.519,141.008 245.180,140.533 245.644 C 140.058 246.109,139.669 246.570,139.669 246.670 C 139.669 246.770,139.421 247.200,139.118 247.625 C 138.814 248.051,138.476 248.883,138.365 249.475 C 138.254 250.066,137.789 250.950,137.332 251.439 C 136.875 251.928,136.501 252.574,136.501 252.874 C 136.501 253.174,136.400 253.420,136.276 253.420 C 136.085 253.420,135.779 254.303,135.172 256.613 C 135.106 256.865,134.744 257.236,134.368 257.437 C 133.409 257.950,132.469 260.104,132.469 261.790 C 132.469 262.370,132.152 262.851,131.307 263.553 C 130.286 264.401,130.084 264.779,129.644 266.672 L 129.144 268.826 93.929 268.900 C 56.609 268.977,57.136 268.995,58.008 267.664 C 58.256 267.285,58.459 266.753,58.459 266.481 C 58.459 265.621,59.156 263.957,59.827 263.214 C 60.653 262.300,61.336 260.862,61.540 259.606 C 61.627 259.065,62.109 258.132,62.609 257.533 C 63.981 255.890,64.399 255.118,64.600 253.852 C 64.701 253.218,64.853 252.311,64.939 251.836 C 65.165 250.579,64.657 251.732,64.200 253.513 C 64.004 254.277,63.502 255.249,63.083 255.673 C 62.664 256.097,62.144 256.897,61.928 257.451 C 61.712 258.006,61.426 258.582,61.293 258.733 C 61.160 258.883,61.051 259.241,61.051 259.529 C 61.051 260.142,60.572 261.054,59.722 262.059 C 59.387 262.455,59.042 263.038,58.956 263.355 C 58.543 264.861,57.620 267.075,57.199 267.567 C 55.740 269.271,55.398 269.255,93.908 269.257 C 132.512 269.259,129.878 269.380,129.878 267.599 C 129.878 266.635,130.312 265.739,131.424 264.408 C 131.993 263.726,132.605 262.628,132.784 261.966 C 133.360 259.839,133.686 259.167,134.526 258.374 C 134.979 257.947,135.349 257.378,135.349 257.109 C 135.349 256.841,135.479 256.541,135.637 256.443 C 135.796 256.346,135.925 256.009,135.925 255.696 C 135.925 255.116,136.560 253.971,137.391 253.052 C 137.646 252.771,138.018 251.993,138.219 251.324 C 138.949 248.891,139.215 248.359,140.296 247.163 C 140.901 246.493,141.397 245.800,141.397 245.623 C 141.397 244.581,142.438 242.031,143.270 241.035 C 144.270 239.839,144.746 238.819,144.447 238.519 C 144.353 238.426,144.276 238.473,144.276 238.626 M267.706 249.995 C 267.636 250.215,267.513 250.875,267.432 251.461 C 267.233 252.892,266.432 254.539,265.454 255.530 C 265.012 255.977,264.651 256.590,264.651 256.890 C 264.651 257.689,263.033 261.091,262.568 261.270 C 262.350 261.353,262.002 261.986,261.794 262.676 C 261.059 265.118,260.807 265.672,259.873 266.907 C 257.956 269.437,255.846 269.306,296.760 269.199 L 330.166 269.112 295.867 269.041 C 259.534 268.966,259.150 268.952,260.277 267.712 C 261.074 266.836,261.349 266.186,261.795 264.120 C 262.097 262.722,262.372 262.163,262.966 261.740 C 263.528 261.341,263.957 260.532,264.521 258.816 C 265.061 257.170,265.541 256.248,266.088 255.805 C 266.996 255.070,267.337 254.279,267.833 251.757 C 268.144 250.175,268.052 248.896,267.706 249.995 M331.874 268.375 C 331.726 268.517,331.281 268.692,330.886 268.763 C 330.271 268.873,330.300 268.898,331.085 268.931 C 331.590 268.953,332.089 268.832,332.193 268.663 C 332.445 268.256,332.215 268.047,331.874 268.375 " stroke="none" fill="#64baa8" fill-rule="evenodd"></path><path id="path5" d="M31.556 19.484 C 31.325 20.085,31.316 165.626,31.546 166.544 C 31.707 167.183,31.785 167.203,33.064 166.940 C 35.187 166.502,98.036 166.331,99.565 166.759 C 100.237 166.946,101.085 167.398,101.450 167.763 C 101.814 168.127,102.443 168.509,102.848 168.610 C 103.252 168.712,104.071 169.378,104.667 170.091 L 105.750 171.387 105.140 172.036 C 104.805 172.393,104.334 173.441,104.093 174.365 C 103.686 175.926,103.278 176.520,102.107 177.250 C 101.830 177.422,101.492 178.348,101.265 179.558 C 100.798 182.041,100.442 182.734,99.344 183.302 C 98.873 183.545,98.488 183.811,98.488 183.893 C 98.488 186.069,96.870 190.178,95.887 190.497 C 95.451 190.638,94.942 192.093,94.607 194.160 C 94.498 194.833,94.050 195.636,93.402 196.320 C 92.418 197.358,91.577 199.104,91.577 200.108 C 91.577 200.366,91.058 201.143,90.425 201.836 C 89.791 202.529,89.271 203.242,89.269 203.420 C 89.263 203.808,88.664 205.451,88.127 206.551 C 87.914 206.987,87.510 207.343,87.228 207.343 C 86.537 207.343,86.387 207.650,86.106 209.639 C 85.785 211.915,85.283 212.877,84.161 213.371 C 83.120 213.829,82.653 215.976,83.681 215.582 C 83.931 215.485,84.184 215.407,84.243 215.407 C 84.728 215.407,86.046 212.718,86.195 211.425 C 86.331 210.237,86.541 209.758,87.124 209.300 C 87.537 208.974,88.001 208.433,88.155 208.098 C 88.308 207.762,88.621 207.163,88.849 206.767 C 89.077 206.371,89.266 205.626,89.269 205.112 C 89.271 204.561,89.421 204.173,89.633 204.169 C 90.892 204.147,92.140 201.917,92.148 199.675 C 92.153 198.393,92.440 198.023,93.652 197.734 C 94.556 197.518,94.973 196.436,95.230 193.642 C 95.383 191.983,95.438 191.878,96.292 191.626 C 97.420 191.294,98.167 189.861,98.186 187.996 C 98.203 186.333,98.620 185.169,99.197 185.169 C 99.886 185.169,101.096 182.966,101.449 181.071 C 101.663 179.920,102.017 179.080,102.505 178.566 C 103.886 177.111,104.170 176.613,104.368 175.291 C 104.519 174.287,104.716 173.920,105.186 173.771 C 107.593 173.006,107.459 170.183,104.959 169.008 C 104.251 168.675,103.672 168.246,103.672 168.053 C 103.672 167.597,102.590 166.652,101.570 166.218 C 100.962 165.959,92.298 165.875,66.221 165.875 L 31.677 165.875 31.677 92.729 L 31.677 19.582 104.536 19.582 L 177.394 19.582 177.394 20.662 C 177.401 32.567,177.408 169.569,177.402 170.495 C 177.394 171.720,177.334 171.821,176.458 172.079 C 175.254 172.433,174.757 173.480,174.630 175.926 L 174.532 177.826 174.925 176.309 C 175.368 174.600,175.803 173.845,177.083 172.565 L 177.970 171.679 177.970 95.659 L 177.970 19.639 177.063 19.323 C 175.363 18.730,31.784 18.890,31.556 19.484 M234.365 19.446 C 233.196 20.082,232.753 22.115,233.237 24.622 C 233.621 26.613,233.624 161.535,233.239 163.283 C 233.083 163.996,232.926 164.750,232.892 164.959 C 232.720 166.005,235.109 167.087,236.873 166.761 C 238.970 166.373,297.925 166.339,300.587 166.724 C 301.971 166.924,302.635 167.194,303.405 167.870 C 303.958 168.357,304.638 168.754,304.914 168.754 C 307.178 168.754,307.670 172.434,305.694 174.591 C 304.725 175.649,304.440 176.295,303.786 178.929 C 303.564 179.823,303.051 180.736,302.352 181.487 C 301.609 182.282,301.153 183.123,300.917 184.128 C 300.483 185.981,300.188 186.558,299.181 187.533 C 298.704 187.994,298.301 188.759,298.195 189.405 C 297.950 190.887,297.513 191.759,296.440 192.900 C 295.830 193.549,295.371 194.487,295.031 195.780 C 294.665 197.168,294.232 198.014,293.460 198.848 C 292.480 199.906,292.042 200.905,291.574 203.142 C 291.478 203.602,290.941 204.437,290.381 204.997 C 289.703 205.675,289.321 206.358,289.238 207.039 C 289.133 207.907,289.158 207.964,289.400 207.415 C 289.558 207.059,289.918 206.767,290.202 206.767 C 291.145 206.767,292.284 204.221,292.292 202.093 C 292.296 201.198,292.413 200.990,292.995 200.844 C 294.231 200.534,294.974 199.193,295.309 196.673 C 295.449 195.617,295.650 195.263,296.339 194.856 C 297.468 194.189,298.086 192.931,298.267 190.932 C 298.406 189.401,298.471 189.283,299.316 189.034 C 300.460 188.697,300.992 187.609,301.205 185.169 C 301.361 183.379,301.412 183.275,302.376 182.796 C 303.762 182.106,304.022 181.661,304.242 179.606 C 304.505 177.152,304.563 177.011,305.547 176.430 C 307.276 175.408,308.161 169.364,306.651 168.884 C 306.310 168.776,305.553 168.200,304.968 167.603 C 304.384 167.007,303.635 166.374,303.304 166.197 C 302.870 165.965,293.230 165.875,268.737 165.875 C 241.891 165.875,234.719 165.799,234.521 165.515 C 234.379 165.311,234.301 133.468,234.342 92.369 L 234.415 19.582 306.202 19.582 L 377.988 19.582 378.367 20.867 C 378.576 21.573,378.925 22.299,379.142 22.479 C 379.476 22.756,379.460 22.951,379.042 23.715 C 378.576 24.566,378.542 29.059,378.488 96.289 C 378.437 159.743,378.379 168.203,377.984 170.114 C 377.739 171.301,377.538 172.696,377.538 173.214 C 377.538 174.007,377.389 174.217,376.602 174.538 C 375.329 175.057,375.026 175.540,374.811 177.392 C 374.489 180.176,374.315 180.850,373.920 180.850 C 372.357 180.850,371.490 182.496,371.490 185.461 C 371.490 186.525,371.382 186.897,371.072 186.897 C 369.448 186.897,368.753 187.978,368.469 190.946 C 368.295 192.764,368.254 192.845,367.370 193.106 C 366.208 193.448,365.704 194.476,365.562 196.790 C 365.463 198.410,365.480 198.475,365.766 197.552 C 366.205 196.136,367.218 194.096,367.483 194.096 C 367.988 194.096,368.611 193.136,368.611 192.359 C 368.611 190.858,369.725 188.392,370.649 187.846 C 371.493 187.347,372.061 186.065,372.065 184.651 C 372.067 183.646,372.816 182.406,373.938 181.550 C 374.688 180.978,374.946 180.564,374.946 179.934 C 374.946 178.442,375.839 176.238,376.701 175.601 C 377.147 175.271,377.597 174.600,377.702 174.110 C 378.236 171.613,379.146 169.411,379.916 168.754 C 380.397 168.344,380.423 164.609,380.425 94.847 C 380.426 13.061,380.597 19.924,378.554 19.410 C 376.730 18.951,235.210 18.986,234.365 19.446 M172.874 178.314 C 172.247 178.617,171.765 179.957,171.439 182.302 C 171.333 183.067,171.099 183.410,170.505 183.673 C 170.069 183.866,169.579 184.314,169.417 184.669 C 168.978 185.629,168.467 187.311,168.467 187.797 C 168.467 188.032,167.998 188.671,167.424 189.216 C 166.207 190.375,165.587 191.668,165.587 193.043 C 165.587 195.022,165.292 195.721,164.247 196.219 C 162.991 196.818,162.412 198.140,162.439 200.351 C 162.460 202.064,162.932 201.790,162.975 200.039 C 163.001 198.968,164.017 197.172,164.796 196.820 C 165.243 196.618,165.507 196.080,165.780 194.816 C 165.985 193.866,166.285 192.864,166.446 192.589 C 166.607 192.313,166.739 191.940,166.739 191.758 C 166.739 191.394,167.837 190.353,168.223 190.353 C 168.357 190.353,168.467 190.045,168.467 189.668 C 168.467 188.644,169.155 187.188,170.463 185.448 C 171.106 184.592,171.712 183.434,171.811 182.875 C 172.150 180.955,173.440 178.834,174.270 178.834 C 174.404 178.834,174.514 178.639,174.514 178.402 C 174.514 177.907,173.796 177.869,172.874 178.314 M364.345 198.910 C 363.403 199.090,362.666 200.471,362.438 202.482 C 362.271 203.959,362.089 204.361,361.179 205.272 C 360.133 206.318,359.410 208.440,359.388 210.528 C 359.382 211.059,359.111 211.355,358.281 211.737 C 357.069 212.295,356.519 213.490,356.511 215.584 C 356.506 216.896,356.304 217.276,355.474 217.535 C 354.203 217.931,353.348 219.892,353.348 222.408 C 353.348 223.539,353.241 223.780,352.600 224.102 C 352.189 224.309,351.639 224.867,351.376 225.342 C 351.114 225.817,350.803 226.249,350.684 226.302 C 350.565 226.355,350.468 226.824,350.468 227.346 C 350.468 229.033,350.119 230.133,349.491 230.430 C 348.534 230.883,347.515 232.695,347.363 234.216 C 347.258 235.258,347.056 235.712,346.551 236.042 C 345.669 236.620,344.420 238.880,344.420 239.898 C 344.420 240.979,344.151 241.613,343.692 241.613 C 342.648 241.613,341.604 243.293,341.402 245.299 C 341.180 247.515,341.133 247.619,340.030 248.320 C 339.030 248.957,338.507 250.207,338.305 252.447 C 338.161 254.046,338.027 254.334,336.865 255.547 C 335.738 256.723,335.540 257.129,335.219 258.926 C 334.898 260.723,334.715 261.099,333.689 262.065 C 332.665 263.030,332.495 263.377,332.279 264.957 C 332.084 266.388,331.862 266.916,331.184 267.564 L 330.333 268.377 296.031 268.412 C 277.164 268.432,261.658 268.378,261.572 268.292 C 261.487 268.206,261.561 267.721,261.738 267.214 C 261.914 266.707,262.059 265.866,262.059 265.344 C 262.059 264.763,262.259 264.250,262.576 264.019 C 263.630 263.252,264.585 261.602,264.786 260.202 C 264.943 259.112,265.213 258.571,265.936 257.898 C 267.276 256.653,267.872 255.314,268.044 253.160 C 268.187 251.382,268.945 249.964,269.752 249.964 C 270.220 249.964,270.650 248.861,270.828 247.203 C 271.195 243.777,271.219 243.712,272.132 243.529 C 273.385 243.278,273.930 242.214,274.037 239.804 C 274.125 237.815,274.116 237.781,273.829 239.021 C 273.399 240.870,272.649 242.289,271.931 242.609 C 271.205 242.932,270.700 243.913,270.694 245.010 C 270.685 246.713,269.375 249.388,268.551 249.388 C 268.365 249.388,268.053 250.360,267.834 251.620 C 267.391 254.178,266.970 255.155,265.988 255.910 C 265.534 256.258,265.024 257.267,264.517 258.816 C 263.955 260.535,263.529 261.340,262.966 261.740 C 262.372 262.163,262.097 262.722,261.795 264.120 C 261.347 266.194,261.075 266.835,260.264 267.726 L 259.694 268.353 260.804 268.676 C 261.606 268.909,271.588 268.975,296.644 268.913 C 334.042 268.820,332.325 268.894,332.325 267.363 C 332.325 265.762,333.304 263.475,334.236 262.899 C 335.016 262.417,335.183 262.108,335.352 260.828 C 335.637 258.663,336.455 256.934,337.294 256.724 C 337.892 256.573,338.055 256.234,338.509 254.193 C 339.032 251.839,339.338 251.011,339.930 250.340 C 340.103 250.144,340.396 249.802,340.580 249.580 C 340.955 249.130,341.650 247.176,341.975 245.660 C 342.092 245.114,342.627 244.207,343.165 243.644 C 343.703 243.081,344.226 242.297,344.327 241.901 C 344.777 240.141,345.580 238.744,346.380 238.330 C 347.132 237.941,347.245 237.700,347.426 236.096 C 347.699 233.685,348.249 232.683,349.522 232.279 C 349.971 232.137,350.182 231.764,350.316 230.874 C 350.794 227.698,351.132 226.877,352.260 226.166 C 352.919 225.750,353.348 225.255,353.348 224.911 C 353.348 223.017,354.575 219.723,355.631 218.782 C 356.151 218.319,356.528 217.546,356.796 216.392 C 357.193 214.682,357.962 213.253,358.827 212.620 C 359.081 212.433,359.458 211.720,359.664 211.036 C 360.197 209.263,360.633 208.086,360.819 207.919 C 361.502 207.306,362.334 205.673,362.554 204.512 C 362.955 202.394,363.688 200.794,364.611 200.018 C 365.382 199.368,365.728 198.652,365.227 198.743 C 365.108 198.765,364.711 198.840,364.345 198.910 M160.903 202.359 C 160.143 202.557,159.538 203.973,159.549 205.529 L 159.558 206.911 160.084 205.389 C 160.593 203.915,161.316 203.052,162.059 203.033 C 162.257 203.028,162.419 202.829,162.419 202.592 C 162.419 202.169,161.923 202.093,160.903 202.359 M159.251 207.770 C 159.251 208.004,158.896 208.285,158.462 208.394 C 157.122 208.731,156.343 210.356,156.397 212.704 L 156.423 213.823 156.700 212.815 C 157.162 211.134,157.736 210.098,158.660 209.275 C 159.398 208.617,159.883 207.343,159.395 207.343 C 159.316 207.343,159.251 207.535,159.251 207.770 M288.767 209.278 C 288.456 211.013,288.016 211.841,287.210 212.208 C 286.456 212.551,285.673 214.085,285.673 215.218 C 285.673 216.293,284.885 217.926,283.976 218.737 C 283.488 219.171,283.085 219.879,282.989 220.469 C 282.777 221.777,281.663 223.986,280.915 224.582 C 280.570 224.856,280.157 225.747,279.928 226.710 C 279.711 227.621,279.433 228.366,279.311 228.366 C 279.189 228.366,279.011 228.610,278.916 228.908 C 278.822 229.206,278.359 229.853,277.889 230.345 C 277.419 230.838,277.034 231.518,277.034 231.857 C 277.034 233.155,276.293 234.850,275.245 235.952 C 273.949 237.315,273.878 237.658,274.946 237.403 C 276.427 237.049,276.866 236.275,277.180 233.461 C 277.343 232.009,277.469 231.744,278.137 231.451 C 279.262 230.957,280.188 229.150,280.197 227.430 C 280.200 226.994,280.299 226.636,280.418 226.633 C 281.591 226.608,282.911 224.152,283.239 221.382 C 283.424 219.829,283.492 219.711,284.338 219.493 C 285.528 219.188,286.021 218.119,286.190 215.484 C 286.285 214.009,286.437 213.391,286.705 213.391 C 288.325 213.391,289.208 211.984,289.073 209.620 L 288.985 208.063 288.767 209.278 M154.731 214.477 C 154.344 214.782,153.904 215.700,153.597 216.847 C 153.228 218.221,152.841 218.950,152.142 219.588 C 151.053 220.584,150.236 223.129,150.390 225.047 L 150.483 226.206 150.713 225.054 C 151.071 223.265,151.490 222.356,152.531 221.110 C 153.059 220.478,153.492 219.709,153.492 219.402 C 153.492 218.547,154.823 216.110,155.642 215.466 C 156.481 214.806,156.608 213.964,155.868 213.973 C 155.590 213.977,155.079 214.204,154.731 214.477 M82.869 216.559 C 82.753 216.955,82.655 217.565,82.653 217.914 C 82.651 218.264,82.134 219.092,81.504 219.754 C 80.874 220.416,80.303 221.167,80.234 221.422 C 80.164 221.677,79.950 222.599,79.756 223.470 C 79.320 225.435,78.775 226.538,78.012 227.001 C 77.381 227.384,76.602 228.955,76.602 229.845 C 76.602 230.501,76.115 231.392,75.215 232.383 C 74.343 233.343,73.840 234.323,73.582 235.565 C 73.335 236.750,72.400 237.869,71.656 237.869 C 71.257 237.869,71.127 238.095,71.118 238.805 C 71.086 241.144,69.770 243.916,68.692 243.916 C 68.476 243.916,68.188 244.647,67.981 245.716 C 67.789 246.706,67.569 247.830,67.492 248.214 C 67.414 248.597,66.879 249.344,66.302 249.872 C 65.274 250.813,64.574 252.530,64.503 254.284 C 64.475 254.977,64.056 255.699,62.474 257.779 C 62.069 258.311,61.576 259.393,61.378 260.182 C 61.082 261.362,60.091 263.111,59.337 263.787 C 59.085 264.013,58.459 265.934,58.459 266.481 C 58.459 266.753,58.256 267.285,58.008 267.664 C 57.136 268.995,56.609 268.977,93.932 268.900 C 128.899 268.827,129.150 268.822,129.241 268.251 C 129.302 267.867,129.251 267.792,129.089 268.027 C 128.674 268.626,58.883 268.578,58.915 267.978 C 58.928 267.732,58.961 266.979,58.987 266.305 C 59.029 265.239,59.148 265.029,59.906 264.694 C 60.986 264.216,61.502 263.242,61.758 261.195 C 62.049 258.874,62.149 258.661,63.039 258.466 C 64.206 258.209,65.083 256.149,65.083 253.665 C 65.083 252.587,65.186 252.268,65.535 252.268 C 66.560 252.268,67.507 250.544,67.982 247.814 C 68.232 246.377,68.456 245.825,68.827 245.728 C 69.104 245.655,69.509 245.250,69.726 244.828 C 69.944 244.406,70.199 243.996,70.295 243.916 C 70.739 243.548,71.130 242.422,71.130 241.516 C 71.130 240.788,71.383 240.248,72.066 239.517 C 73.588 237.889,73.723 237.655,73.905 236.325 C 74.112 234.818,74.186 234.700,75.306 234.077 C 76.283 233.534,76.847 232.213,77.097 229.878 C 77.217 228.751,77.376 228.364,77.722 228.359 C 78.986 228.342,80.058 226.519,80.058 224.385 C 80.058 222.979,80.656 221.742,81.337 221.742 C 82.198 221.742,83.325 218.828,83.175 216.991 C 83.093 215.978,83.056 215.926,82.869 216.559 M148.423 226.570 C 147.770 227.007,147.445 228.092,147.484 229.715 L 147.524 231.389 147.831 229.964 C 148.057 228.915,148.436 228.250,149.266 227.444 L 150.393 226.350 149.567 226.354 C 149.112 226.357,148.598 226.454,148.423 226.570 M147.179 232.037 C 147.166 232.235,146.949 232.397,146.697 232.397 C 145.626 232.397,144.636 233.503,144.446 234.913 C 143.959 238.528,143.976 238.479,143.064 238.797 C 142.017 239.162,141.516 240.232,141.237 242.705 C 141.078 244.108,140.930 244.492,140.550 244.492 C 139.542 244.492,137.941 247.220,137.941 248.938 C 137.941 249.038,137.498 249.562,136.957 250.103 C 135.836 251.224,135.729 251.490,135.252 254.338 C 134.920 256.322,134.866 256.420,133.982 256.649 C 132.840 256.945,132.578 257.418,132.339 259.611 C 132.035 262.409,131.978 262.546,131.046 262.733 C 129.908 262.960,129.293 264.188,129.334 266.148 L 129.365 267.675 129.748 266.102 C 130.053 264.849,130.367 264.333,131.300 263.559 C 132.152 262.851,132.469 262.371,132.469 261.790 C 132.469 260.104,133.409 257.950,134.368 257.437 C 134.744 257.236,135.106 256.865,135.172 256.613 C 135.779 254.303,136.085 253.420,136.276 253.420 C 136.400 253.420,136.501 253.174,136.501 252.874 C 136.501 252.574,136.875 251.928,137.332 251.439 C 137.789 250.950,138.254 250.066,138.365 249.475 C 138.476 248.883,138.814 248.051,139.118 247.625 C 139.421 247.200,139.669 246.770,139.669 246.670 C 139.669 246.570,140.058 246.109,140.533 245.644 C 141.008 245.180,141.397 244.519,141.397 244.176 C 141.397 242.920,142.112 241.218,143.065 240.208 C 144.303 238.895,144.564 238.397,144.564 237.355 C 144.564 235.877,145.172 234.585,146.364 233.527 C 147.067 232.904,147.462 232.336,147.364 232.088 C 147.256 231.814,147.194 231.797,147.179 232.037 " stroke="none" fill="#4cb49c" fill-rule="evenodd"></path></g></svg>